<svg width="290" height="510" viewBox="0 0 290 510" fill="none" xmlns="http://www.w3.org/2000/svg">
<path d="M20.9122 139.082C253.028 221.896 446.218 -3.55786 310.045 -381.051C660.692 -260.195 671.754 123.06 399.069 278.593C126.385 434.126 -293.867 257.084 -406.893 20.0821L-213.152 -139.614C-215.878 -98.1228 -48.738 114.233 20.9122 139.082Z" fill="url(#paint0_linear_269_27465)" fill-opacity="0.15"/>
<path d="M20.9122 -40.9176C253.028 41.896 446.218 -183.558 310.045 -561.051C660.692 -440.195 671.754 -56.94 399.069 98.5928C126.385 254.126 -293.867 77.0837 -406.893 -159.918L-213.152 -319.614C-215.878 -278.123 -48.738 -65.7673 20.9122 -40.9176Z" fill="url(#paint1_linear_269_27465)" fill-opacity="0.15"/>
<path d="M40.7716 -18.6837C272.887 64.1299 466.077 -161.324 329.905 -538.817C680.552 -417.961 691.614 -34.7061 418.929 120.827C146.244 276.36 -274.008 99.3176 -387.033 -137.684L-193.293 -297.38C-196.018 -255.889 -28.8787 -43.5334 40.7716 -18.6837Z" fill="url(#paint2_linear_269_27465)" fill-opacity="0.15"/>
<defs>
<linearGradient id="paint0_linear_269_27465" x1="47.6646" y1="-76.7431" x2="-51.4834" y2="445.513" gradientUnits="userSpaceOnUse">
<stop stop-color="#89B8FF"/>
<stop offset="0.46875" stop-color="#2D65F5" stop-opacity="0"/>
</linearGradient>
<linearGradient id="paint1_linear_269_27465" x1="47.6646" y1="-256.743" x2="-51.4834" y2="265.513" gradientUnits="userSpaceOnUse">
<stop stop-color="#0066FF"/>
<stop offset="0.510991" stop-color="#2D65F5" stop-opacity="0.01"/>
</linearGradient>
<linearGradient id="paint2_linear_269_27465" x1="67.5239" y1="-234.509" x2="-31.624" y2="287.747" gradientUnits="userSpaceOnUse">
<stop stop-color="#0066FF"/>
<stop offset="0.510991" stop-color="#2D65F5" stop-opacity="0.01"/>
</linearGradient>
</defs>
</svg>
