<svg width="1085" height="164" viewBox="0 0 1085 164" fill="none" xmlns="http://www.w3.org/2000/svg">
<g clip-path="url(#clip0_257_34933)">
<path opacity="0.1" d="M0 12C0 5.37258 5.37258 0 12 0H1073C1079.63 0 1085 5.37258 1085 12V152C1085 158.627 1079.63 164 1073 164H12C5.37255 164 0 158.627 0 152V12Z" fill="#060CBB"/>
<path d="M88.8939 45.7818C94.3517 45.7818 98.7761 41.3572 98.7761 35.8991C98.7761 30.4411 94.3517 26.0165 88.8939 26.0165C83.4361 26.0165 79.0117 30.4411 79.0117 35.8991C79.0117 41.3572 83.4361 45.7818 88.8939 45.7818Z" fill="white"/>
<path d="M98.2663 39.0265C96.5398 44.2061 90.9428 47.0027 85.7666 45.2731C84.4215 44.824 83.2371 44.116 82.249 43.2179C83.0369 43.7873 83.9229 44.2455 84.8918 44.5692C90.071 46.2957 95.668 43.4981 97.3944 38.3226C98.6748 34.4852 97.4683 30.4173 94.6526 27.8695C98.0852 30.3273 99.6731 34.817 98.2663 39.0265Z" fill="#C5CDE3"/>
<path d="M88.8855 45.9659C87.8316 45.9659 86.7616 45.799 85.7077 45.4481C80.4425 43.6912 77.5894 37.9787 79.3451 32.7132C80.1957 30.1624 81.9889 28.096 84.3939 26.8945C86.799 25.6929 89.5287 25.4997 92.0784 26.3503C94.6291 27.2019 96.6953 28.9942 97.8969 31.4004C99.0984 33.8055 99.2916 36.5344 98.441 39.0852C97.0362 43.2968 93.0989 45.9659 88.8855 45.9659ZM88.8845 26.1956C87.3997 26.1956 85.9252 26.5405 84.5588 27.2232C82.2417 28.3813 80.5133 30.3717 79.694 32.8295C78.002 37.9028 80.7519 43.407 85.824 45.1001C90.8971 46.7933 96.401 44.0422 98.0941 38.9689C98.9143 36.5111 98.7282 33.8814 97.5702 31.5642C96.4122 29.247 94.4218 27.5195 91.9641 26.6993C90.9547 26.3624 89.9171 26.1956 88.8845 26.1956Z" fill="black"/>
<path d="M96.0829 35.8992C96.0829 37.7632 95.3729 39.4614 94.2098 40.7388C92.893 42.1822 90.9997 43.0874 88.894 43.0874C86.7873 43.0874 84.894 42.1822 83.5782 40.7388C82.4151 39.4604 81.7051 37.7622 81.7051 35.8992C81.7051 31.9293 84.9233 28.71 88.894 28.71C92.8636 28.711 96.0829 31.9293 96.0829 35.8992Z" fill="#FF4148"/>
<path d="M88.8946 35.2032C89.9459 35.2032 90.798 34.351 90.798 33.2997C90.798 32.2485 89.9459 31.3962 88.8946 31.3962C87.8434 31.3962 86.9912 32.2485 86.9912 33.2997C86.9912 34.351 87.8434 35.2032 88.8946 35.2032Z" fill="white"/>
<path d="M92.9764 39.3128C91.966 40.4213 90.5116 41.1162 88.8944 41.1162C87.2772 41.1162 85.8229 40.4213 84.8125 39.3128C85.1513 37.3658 86.8504 35.8831 88.8944 35.8831C90.9384 35.8831 92.6375 37.3658 92.9764 39.3128ZM198.409 30.0704V100.129C198.409 103.412 197.08 106.385 194.929 108.536C192.777 110.687 189.809 112.016 186.526 112.016H126.775C120.209 112.016 114.892 106.695 114.892 100.129V30.0704C114.892 23.5042 120.209 18.1831 126.775 18.1831H186.526C189.809 18.1831 192.777 19.5121 194.929 21.6634C197.08 23.8147 198.409 26.7873 198.409 30.0704Z" fill="white"/>
<path d="M186.525 112.199H126.774C120.121 112.199 114.708 106.784 114.708 100.128V30.0704C114.708 23.4152 120.121 18 126.774 18H186.525C189.748 18 192.778 19.2552 195.057 21.5339C197.336 23.8127 198.591 26.8439 198.591 30.0704V100.129C198.591 103.355 197.336 106.387 195.057 108.665C192.778 110.944 189.748 112.199 186.525 112.199ZM126.774 18.3661C120.323 18.3661 115.074 23.6164 115.074 30.0704V100.129C115.074 106.583 120.322 111.833 126.774 111.833H186.525C189.65 111.833 192.588 110.616 194.798 108.406C197.008 106.196 198.225 103.257 198.225 100.129V30.0704C198.225 26.942 197.008 24.0028 194.798 21.7928C192.588 19.5829 189.65 18.3661 186.525 18.3661H126.774Z" fill="black"/>
<path d="M156.651 78.2365H122.115V85.0686H156.651V78.2365Z" fill="#E5E8FF"/>
<path d="M156.651 88.0312H122.115V90.4546H156.651V88.0312Z" fill="#E5E8FF"/>
<path d="M156.651 93.418H122.115V95.8413H156.651V93.418Z" fill="#E5E8FF"/>
<path d="M145.586 98.8038H138.784V101.227H145.586V98.8038Z" fill="#E5E8FF"/>
<path d="M130.517 98.8038H122.115V101.227H130.517V98.8038Z" fill="#E5E8FF"/>
<path d="M149.88 40.1007V58.8151C149.88 61.1364 148 63.0156 145.68 63.0156H109.13C106.814 63.0156 104.934 61.1353 104.934 58.8151V40.1007C104.934 37.7846 106.814 35.9003 109.13 35.9003H145.68C148.001 35.9003 149.88 37.7846 149.88 40.1007Z" fill="white"/>
<path d="M145.68 63.1997H109.128C106.713 63.1997 104.749 61.2324 104.749 58.8161V40.1007C104.749 37.6834 106.713 35.7162 109.128 35.7162H145.68C148.097 35.7162 150.064 37.6834 150.064 40.1007V58.8151C150.064 61.2324 148.097 63.1997 145.68 63.1997ZM109.129 36.0833C106.917 36.0833 105.117 37.8857 105.117 40.1007V58.8151C105.117 61.0302 106.917 62.8325 109.129 62.8325H145.681C147.896 62.8325 149.698 61.0302 149.698 58.8151V40.1007C149.698 37.8857 147.896 36.0833 145.681 36.0833H109.129Z" fill="black"/>
<path d="M146.069 58.1031H108.453C108.578 56.2512 108.707 54.3588 109.196 52.6738C109.686 50.9857 110.613 49.509 111.757 49.2501C113.428 48.8708 114.858 51.0332 116.435 52.0062C118.384 53.2058 120.747 52.426 122.246 50.0845C123.318 48.4106 124.105 45.9063 125.574 45.4684C127.095 45.0122 128.405 47.033 129.735 48.2973C132.758 51.1637 137.026 49.9601 139.263 45.614C139.871 44.4286 140.366 43.0177 141.199 42.2561C142.316 41.2355 143.812 41.7382 144.771 43.1128C145.732 44.4873 146.212 46.5688 146.334 48.6291C146.459 50.6873 146.069 58.1031 146.069 58.1031Z" fill="#007AFD"/>
<path d="M165.59 52.614H159.011V69.0932H165.59V52.614Z" fill="#007AFD"/>
<path d="M155.898 63.6174H149.319V69.0943H155.898V63.6174Z" fill="#E5E8FF"/>
<path d="M175.294 43.2128H168.715V69.0941H175.294V43.2128Z" fill="#04B5A4"/>
<path d="M184.997 58.8829H178.418V69.0943H184.997V58.8829Z" fill="#FF4148"/>
<path d="M194.703 40.3455H188.124V69.0942H194.703V40.3455Z" fill="#FFD24F"/>
<path d="M127.407 24.46C127.407 25.604 126.481 26.5304 125.337 26.5304C124.193 26.5304 123.267 25.604 123.267 24.46C123.267 23.3161 124.193 22.3896 125.337 22.3896C126.481 22.3896 127.407 23.3161 127.407 24.46Z" fill="#FF4148"/>
<path d="M133.232 24.46C133.232 25.604 132.305 26.5304 131.161 26.5304C130.017 26.5304 129.087 25.604 129.087 24.46C129.087 23.3161 130.017 22.3896 131.161 22.3896C132.305 22.3896 133.232 23.3161 133.232 24.46Z" fill="#FFD24F"/>
<path d="M139.057 24.46C139.057 25.604 138.13 26.5304 136.982 26.5304C135.839 26.5304 134.912 25.604 134.912 24.46C134.912 23.3161 135.839 22.3896 136.982 22.3896C138.13 22.3896 139.057 23.3161 139.057 24.46Z" fill="#04B5A4"/>
<path d="M115.274 94.9027C115.274 94.9027 95.6076 111.616 88.4945 110.534C82.7944 109.67 70.2432 94.3879 70.2432 94.3879L78.0429 83.1489L89.6222 93.6485L112.08 87.1522L115.274 94.9027Z" fill="#FFCFC5"/>
<path d="M129.244 81.1605L105.779 110.53C104.649 111.904 102.621 112.102 101.244 110.972C99.871 109.842 99.6758 107.81 100.806 106.436L124.263 77.0703C124.305 77.1168 124.356 77.1624 124.41 77.2079L129.017 81.0007C129.09 81.0604 129.166 81.114 129.244 81.1605Z" fill="white"/>
<path d="M103.287 111.886C102.525 111.886 101.76 111.633 101.128 111.113C99.6783 109.919 99.47 107.769 100.664 106.319L124.12 76.955C124.154 76.9136 124.204 76.8873 124.259 76.8863C124.32 76.8853 124.365 76.9075 124.401 76.948C124.436 76.9884 124.48 77.0268 124.528 77.0663L129.135 80.8591C129.201 80.9127 129.268 80.9613 129.338 81.0028C129.384 81.0301 129.415 81.0756 129.425 81.1282C129.434 81.1798 129.421 81.2334 129.388 81.2758L105.924 110.646C105.249 111.462 104.272 111.886 103.287 111.886ZM124.282 77.3394L100.949 106.55C99.8816 107.847 100.067 109.766 101.36 110.83C102.655 111.893 104.573 111.706 105.637 110.413L128.976 81.201C128.951 81.1818 128.925 81.1616 128.9 81.1413L124.293 77.3485C124.289 77.3455 124.286 77.3424 124.282 77.3394Z" fill="black"/>
<path d="M134.115 78.7806L132.574 80.6548C131.748 81.6571 130.308 81.8584 129.243 81.1595C129.165 81.113 129.089 81.0594 129.016 80.9997L124.41 77.2069C124.355 77.1614 124.303 77.1158 124.263 77.0693C123.323 76.1631 123.225 74.6763 124.066 73.6517L125.645 71.733C126.118 72.3369 126.617 72.9144 127.139 73.4696C128.622 75.0535 130.287 76.4351 132.089 77.5963C132.746 78.0221 133.424 78.4155 134.115 78.7806Z" fill="#242B2B"/>
<path opacity="0.2" d="M154.255 80.6335C147.286 82.798 140.102 81.9322 134.116 78.7816C130.86 77.0713 127.961 74.6803 125.647 71.734C123.706 69.2671 122.176 66.4129 121.19 63.237C116.865 49.3016 124.652 34.4953 138.588 30.1664C152.523 25.8405 167.326 33.6315 171.655 47.567C175.979 61.5014 168.193 76.3077 154.255 80.6335Z" fill="white"/>
<path d="M146.388 82.0183C142.129 82.0183 137.906 80.9836 134.03 78.9436C130.692 77.1908 127.823 74.8028 125.502 71.8474C123.494 69.2956 121.984 66.4171 121.013 63.2908C116.664 49.2805 124.524 34.3417 138.533 29.9906C152.541 25.6435 167.477 33.5022 171.829 47.5115C173.936 54.2982 173.273 61.4995 169.965 67.7886C166.656 74.0776 161.096 78.7019 154.309 80.8087C151.704 81.6178 149.038 82.0183 146.388 82.0183ZM146.403 29.1592C143.833 29.1592 141.221 29.5405 138.641 30.3415C124.825 34.633 117.075 49.3644 121.363 63.1825C122.321 66.2654 123.81 69.1044 125.789 71.6209C128.079 74.5358 130.907 76.8904 134.199 78.6199C140.403 81.8858 147.506 82.5382 154.198 80.4587C160.893 78.3812 166.376 73.8207 169.639 67.6187C172.902 61.4166 173.554 54.3144 171.477 47.6217C167.988 36.3848 157.594 29.1592 146.403 29.1592Z" fill="#242B2B"/>
<path d="M112.081 87.1502L113.341 90.4546L117.295 87.6104C117.295 87.6104 121.468 89.0275 121.248 87.6104C121.099 86.6546 119.086 85.0222 117.878 84.5398C117.267 84.294 116.579 84.3901 116.052 84.7774L112.081 87.1502ZM123.26 94.6955C122.743 95.8273 121.727 95.7706 121.727 95.7706C121.727 95.7706 122.057 96.9803 121.263 97.4425C120.47 97.9047 120.032 97.4243 120.032 97.4243C120.032 97.4243 120.395 98.549 119.708 98.8858C119.021 99.2226 117.9 98.5885 117.9 98.5885C117.9 98.5885 117.596 100.076 116.631 99.7395C115.668 99.4067 112.165 97.927 113.744 96.6475C113.343 96.4523 112.966 94.5691 114.487 95.1061C114.487 95.1061 113.427 94.0168 114.926 93.4009C114.926 93.4009 113.472 91.8423 114.473 91.4852C115.47 91.1302 117.278 93.3634 119.534 93.2987C119.673 93.2987 120.024 92.9346 120.361 92.5371C120.776 92.0577 121.178 91.5226 121.178 91.5226C121.178 91.5226 123.776 93.5637 123.26 94.6955Z" fill="#FFCFC5"/>
<path d="M121.265 93.6445C120.758 93.8569 119.535 93.2986 119.535 93.2986C119.675 93.2986 120.026 92.9345 120.363 92.537C120.408 92.5673 121.314 93.6243 121.265 93.6445ZM114.487 95.106C115.935 95.901 117.415 96.7728 119.1 96.8629C117.407 97.0358 115.782 96.1104 114.487 95.106ZM113.744 96.6494C114.779 97.3301 115.876 97.9259 117.117 98.0776C115.857 98.1888 114.611 97.5284 113.744 96.6494ZM114.892 93.2683C116.48 94.1027 118.17 95.197 120.035 95.015C118.217 95.4651 116.311 94.306 114.892 93.2683Z" fill="#FC9B88"/>
<path d="M78.0088 156.748L77.6504 156.828L88.5932 206.056L88.9516 205.976L78.0088 156.748Z" fill="black"/>
<path d="M47.2857 156.746L36.3574 205.977L36.7158 206.057L47.6441 156.825L47.2857 156.746Z" fill="black"/>
<path d="M85.7318 159.979H39.5805C37.8976 159.979 36.5332 158.615 36.5332 156.932V154.803H88.7791V156.932C88.7791 158.615 87.4147 159.979 85.7318 159.979Z" fill="#E5E8FF"/>
<path d="M85.7332 160.162H39.5819C37.8009 160.162 36.3516 158.713 36.3516 156.932V154.619H88.9646V156.932C88.9646 158.713 87.5153 160.162 85.7332 160.162ZM36.7177 154.987V156.932C36.7177 158.51 38.0021 159.796 39.5819 159.796H85.7332C87.313 159.796 88.5974 158.511 88.5974 156.932V154.987H36.7177Z" fill="black"/>
<path d="M89.7231 154.802H35.591C33.7088 154.802 32.1826 153.276 32.1826 151.394V147.526C32.1826 145.644 33.7088 144.118 35.591 144.118H89.7231C91.6053 144.118 93.1314 145.644 93.1314 147.526V151.395C93.1304 153.277 91.6053 154.802 89.7231 154.802Z" fill="white"/>
<path d="M89.7235 154.987H35.5914C33.6111 154.987 32 153.375 32 151.395V147.526C32 145.546 33.6111 143.935 35.5914 143.935H89.7235C91.7038 143.935 93.3149 145.546 93.3149 147.526V151.395C93.3149 153.375 91.7038 154.987 89.7235 154.987ZM35.5914 144.301C33.8134 144.301 32.3671 145.747 32.3671 147.526V151.395C32.3671 153.173 33.8134 154.619 35.5914 154.619H89.7235C91.5015 154.619 92.9478 153.173 92.9478 151.395V147.526C92.9478 145.748 91.5015 144.301 89.7235 144.301H35.5914ZM74.654 62.4855C74.2626 63.7741 73.325 64.8866 72.1255 65.4955C72.8689 65.1001 73.7538 66.0022 73.7124 66.8468C73.6709 67.6873 73.0893 68.3882 72.6008 69.0739C72.1113 69.7597 71.6785 70.6255 71.9637 71.4164C72.3955 72.5988 74.1068 72.8061 74.7187 73.9065C75.2011 74.7713 74.7976 75.9152 74.0593 76.5777C73.321 77.2362 72.3308 77.5274 71.3781 77.7945C69.0974 78.4296 66.7359 79.0365 64.3874 78.7361C61.3078 78.3467 58.5356 76.3572 56.9275 73.7012C55.3224 71.0452 54.8319 67.7904 55.2951 64.7208C55.6137 62.5806 56.3722 60.5264 56.6949 58.3852C57.0135 56.245 56.8324 53.8823 55.4782 52.1963C54.7136 51.2415 53.5555 50.4212 53.509 49.1984C53.4716 48.2386 54.1614 47.4193 54.8673 46.77C56.526 45.2427 58.6377 44.3335 60.7738 43.6194L61.9186 43.8419C64.7242 44.6379 66.8906 46.9176 67.904 49.6505C68.3561 50.8673 68.5543 52.1892 69.2107 53.3129C70.4365 55.4197 73.0277 56.4534 74.2221 58.5764C74.8845 59.7526 75.0413 61.198 74.654 62.4855Z" fill="black"/>
<path d="M64.1049 66.8247C64.5135 67.6693 64.6177 68.7717 63.9927 69.4726C63.3029 70.2433 62.0195 70.2201 61.3216 70.9837C60.7047 71.6543 60.7623 72.7102 61.0556 73.574C61.3489 74.4337 61.8344 75.2388 61.9811 76.1369C62.1742 77.3314 61.6918 78.6119 60.7593 79.3826C59.8268 80.1533 58.4776 80.3849 57.3449 79.9682C56.2769 79.5788 55.4637 78.6958 54.4503 78.1871C53.4329 77.6783 51.9259 77.7289 51.4597 78.7656C51.2018 79.3441 51.3676 80.0147 51.3403 80.6469C51.2705 82.2773 49.7606 83.665 48.1292 83.757C46.4948 83.8501 44.911 82.7587 44.2516 81.2628C43.5962 79.7669 43.8086 77.9635 44.649 76.5607C45.2235 75.5928 46.1064 74.5024 45.6048 73.4961C45.266 72.8103 44.4134 72.5595 43.6508 72.5018C42.8872 72.4482 42.0822 72.5059 41.3964 72.159C40.3982 71.6543 39.9704 70.3779 40.1666 69.2754C40.3628 68.1729 41.0607 67.2252 41.8394 66.4191C42.6141 65.614 43.4971 64.901 44.1909 64.0251C46.0599 61.6735 46.3805 58.4906 46.6961 55.5028C47.0126 52.5161 47.4981 49.3159 49.5755 47.1464C51.934 46.3292 55.4991 44.0818 57.9891 44.1475C60.4832 44.2173 63.1037 45.3693 64.2172 47.6015C65.084 49.3402 64.907 51.4217 64.3639 53.2868C63.8208 55.1488 62.9378 56.8986 62.4018 58.7636C61.8698 60.6287 61.7191 62.7183 62.6101 64.4408C63.042 65.2752 63.6974 65.9771 64.1049 66.8247ZM123.847 201.897L112.782 196.234L109.772 193.694L97.9022 195.755L98.1217 205.094C98.0327 205.583 98.411 206.023 98.8985 206.012L125.17 205.421L125.132 203.72C125.113 202.903 124.61 202.188 123.847 201.897Z" fill="black"/>
<path d="M141.689 167.678L136.225 158.407L128.333 168.527L132.358 175.299C137.556 174.585 140.955 171.753 141.689 167.678Z" fill="#FFCFC5"/>
<path d="M102.205 135.63L113.072 188.05C113.072 190.52 95.0214 193.947 95.0214 191.477L83.7971 144.407L48.332 144.21L80.7478 131.152L99.7344 129.454L102.205 135.63Z" fill="#007AFD"/>
<path d="M115.838 187.626C115.992 188.463 115.8 189.299 115.385 189.932C115.006 190.512 114.433 190.934 113.766 191.053C107.91 192.106 102.055 193.077 96.2004 193.966C94.9898 194.149 93.7792 193.375 93.3878 192.048C93.1167 191.128 93.2786 190.203 93.7226 189.526C94.0897 188.962 94.6611 188.561 95.3317 188.459C101.229 187.564 107.126 186.586 113.024 185.528C114.298 185.298 115.574 186.191 115.838 187.626ZM124.871 170.702L105.562 152.607L102.139 135.466C102.139 135.466 61.9895 144.212 48.3298 144.212C48.2458 144.212 48.1619 144.211 48.079 144.21C39.2183 144.1 33.3128 135.005 36.7374 126.832L39.8585 119.381L51.2749 119.937L53.0631 122.762L53.5637 122.434C65.2269 121.817 91.5633 114.81 97.403 116.902C101.115 118.232 138.446 159.832 138.446 159.832C140.867 162.53 127.292 173.404 124.871 170.702Z" fill="#007AFD"/>
<path d="M79.9914 94.7764C77.6864 97.3575 75.5049 99.4158 75.0649 99.0446L72.5598 96.6961L59.7607 84.6945L67.3855 73.4393C67.3855 73.4393 71.0022 73.1116 75.6303 76.0144C79.0053 78.1303 85.9879 86.1186 85.9879 86.1186C86.6008 86.6364 83.1752 91.2081 79.9914 94.7764Z" fill="#FF4148"/>
<path d="M79.9917 94.7764C77.6868 97.3575 75.5052 99.4158 75.0653 99.0446L72.5601 96.696L72.3184 85.0697L79.9917 94.7764Z" fill="black"/>
<path d="M70.915 75.271C67.7818 70.9684 47.9395 74.9564 41.8146 79.519C34.3809 85.0565 35.0404 126.205 35.0404 126.205C49.8763 126.207 59.7221 127.255 72.2238 120C72.2238 120.001 77.5831 84.4274 70.915 75.271Z" fill="#FF4148"/>
<path d="M51.6906 92.0536L49.7285 107.931L65.4969 110.253L44.1012 113.98C44.1012 113.98 42.6863 111.275 42.5265 111.066C42.3667 110.858 46.1128 97.4829 46.1128 97.4829L51.6906 92.0536Z" fill="black"/>
<path d="M63.8475 142.831L63.7939 142.469C80.4706 139.984 101.886 135.332 102.1 135.285L102.178 135.643C101.963 135.691 80.5363 140.345 63.8475 142.831Z" fill="white"/>
<path d="M102.392 135.591L102.032 135.662L105.39 152.639L105.75 152.568L102.392 135.591Z" fill="white"/>
<path d="M141.385 159.213C141.926 159.871 142.163 160.694 142.107 161.45C142.057 162.14 141.759 162.787 141.236 163.216C136.626 166.977 131.976 170.666 127.287 174.284C126.317 175.031 124.883 174.942 123.898 173.971C123.215 173.297 122.907 172.41 122.966 171.602C123.015 170.932 123.319 170.304 123.855 169.889C128.578 166.245 133.261 162.531 137.905 158.744C138.909 157.925 140.459 158.087 141.385 159.213Z" fill="#007AFD"/>
<path d="M65.497 110.254L65.9835 118.364C65.9835 118.364 37.6304 123.602 33.5525 118.541C29.4362 113.434 35.9151 94.2888 35.9151 94.2888L48.3642 96.7324L45.2148 110.32L65.497 110.254Z" fill="#FFCFC5"/>
<path d="M45.1346 77.747C36.1991 79.603 32.543 99.8436 32.543 99.8436C37.5614 103.334 44.7372 103.98 49.7273 102.22C49.7273 102.22 51.832 92.9447 52.4692 86.1752C53.0244 80.2816 47.5357 77.2484 45.1346 77.747Z" fill="#FF4148"/>
<path d="M135.625 156.784L128.087 166.505L137.904 158.744L135.625 156.784Z" fill="black"/>
<path d="M66.1684 81.5733C64.3469 82.9781 62.1653 79.8791 62.1653 79.8791L60.54 73.939L61.0124 72.079L62.2017 71.8868L65.3704 74.2364C65.3704 74.2364 67.9899 80.1684 66.1684 81.5733Z" fill="#F23243"/>
<path d="M62.1655 79.8781C62.1655 79.8781 60.2611 84.2798 58.2353 83.8651C56.2095 83.4504 50.4072 75.8091 50.4072 75.8091L52.5251 73.0681L57.9086 72.5786L59.628 76.2946L62.1655 79.8781Z" fill="#F23243"/>
<path d="M52.5215 73.0692C55.2047 75.7525 59.4171 78.3064 62.162 79.8791C62.5524 77.3849 63.1693 75.6938 62.4917 72.9458L52.5215 73.0692Z" fill="#FFCFC5"/>
<path d="M62.4902 72.9456L52.521 73.069L52.2803 61.4265L53.1713 62.4946L53.4686 62.8496L53.6021 63.0104L53.7427 63.0539L60.9336 65.3144L60.9488 65.4075L61.8864 70.7104L61.8955 70.767L62.4902 72.9456Z" fill="#FFCFC5"/>
<path d="M62.181 71.82C62.181 71.82 55.6758 68.3104 53.8816 64.4154C53.7663 64.1645 53.6753 63.9339 53.6076 63.7205C53.5843 63.6538 53.5661 63.5901 53.5469 63.5273L53.8806 63.9258L53.9787 64.0432L61.0877 66.2794L62.181 71.82Z" fill="#FC9B88"/>
<path d="M64.2718 68.7099C60.7168 70.0348 55.6407 67.8643 52.9039 63.2188C52.0856 63.411 50.7719 63.2714 49.8869 62.6474C48.4811 61.6531 47.936 59.9924 48.6854 58.9496C49.1061 58.3508 49.7989 57.8583 50.6313 57.9281C49.6422 53.0044 51.7266 48.5157 55.0662 47.1796C57.5613 46.1824 61.5876 46.2451 64.0422 48.5724C65.5522 50.0035 66.873 51.9394 67.7833 54.2313C70.1904 60.2331 67.7853 67.394 64.2718 68.7099Z" fill="#FFCFC5"/>
<path d="M63.6768 55.793L66.4237 60.1745L64.1511 61.2172L63.6768 55.793Z" fill="#FC9B88"/>
<path d="M52.908 59.4017C52.6258 58.5319 52.4913 57.4992 53.0385 56.7669C53.4531 56.2127 54.1591 55.9699 54.8316 55.8051C56.0281 55.5118 56.9232 54.9595 58.1338 54.8129C59.5639 54.6399 60.998 54.3628 62.3118 53.7509C64.018 52.9569 65.5169 51.5116 65.9315 49.6758C66.242 48.3013 65.8961 46.7922 65.0132 45.6938C64.1303 44.5954 61.9346 43.2725 60.5247 43.2927C59.6043 43.3059 57.7464 43.8642 56.8706 44.1474C54.9034 44.7836 53.3338 45.3864 51.3666 46.0215C50.419 46.328 49.5229 47.1624 48.91 47.9483C47.5881 49.6445 50.0751 52.2064 49.1285 54.1372C48.7441 54.9211 47.9957 55.6341 48.1302 56.4969C48.2101 57.0117 48.6106 57.4304 49.0738 57.6701C49.6635 57.9756 50.3037 57.9068 50.8923 58.1253C51.2149 58.2456 52.8099 59.1003 52.908 59.4017Z" fill="black"/>
<path d="M85.5931 122.569L85.5972 122.573L61.8429 125.164C60.6596 125.295 59.5956 124.44 59.4651 123.252C59.4034 122.69 59.5653 122.158 59.8737 121.737C60.1903 121.313 60.6525 121.005 61.2077 120.897L74.0078 118.476L87.1011 116.001L85.5931 122.569Z" fill="#444BA1"/>
<path d="M88.0759 115.888L86.569 122.456L74.7227 123.749L74.9826 118.363L88.0759 115.888Z" fill="#212676"/>
<path d="M106.485 120.29L76.2354 123.592L77.4874 97.8106C77.5562 96.3875 78.6505 95.2254 80.0675 95.0707L107.537 92.0718C109.307 91.8786 110.832 93.3138 110.746 95.0929L109.688 116.889C109.601 118.655 108.242 120.097 106.485 120.29Z" fill="#444BA1"/>
<path d="M80.4225 95.0282C79.7145 95.5572 79.2493 96.3815 79.2017 97.313L77.9365 123.403L76.2354 123.589L77.4885 97.8106C77.5572 96.3855 78.6515 95.2234 80.0665 95.0676L80.4225 95.0282Z" fill="#212676"/>
<path d="M97.9974 107.163C98.2067 109.08 96.8242 110.801 94.9107 111.011C93.8679 111.125 92.8828 110.764 92.1729 110.105C92.4844 110.146 92.806 110.148 93.1327 110.113C95.4335 109.862 97.0993 107.791 96.8475 105.486C96.8232 105.264 96.7817 105.042 96.7251 104.834C97.4148 105.393 97.8932 106.212 97.9974 107.163Z" fill="white"/>
<path d="M77.3108 111.412C77.5091 112.394 76.1872 112.793 75.2001 112.836C76.3824 112.946 78.3768 113.838 78.3283 114.349C78.1978 115.709 75.4095 114.949 74.5912 114.805C75.3832 114.967 77.6122 116.057 77.4565 116.505C77.1682 117.335 74.8138 116.849 73.7548 116.707C74.6782 116.857 75.8352 118.141 75.5642 118.454C74.5811 119.587 64.6898 118.329 64.5624 118.063C63.1586 117.965 63.6815 110.361 65.0863 110.458C65.0863 110.458 70.7824 107.55 72.2186 108.507C73.6547 109.464 70.0067 110.949 70.0067 110.949C70.0067 110.949 77.0489 110.12 77.3108 111.412Z" fill="#FFCFC5"/>
<path d="M118.159 39.4565H108.453V41.7171H118.159V39.4565Z" fill="#E5E8FF"/>
<path d="M112.948 43.0905H108.453V45.351H112.948V43.0905Z" fill="#E5E8FF"/>
<path d="M206.817 83.508V126.185C206.817 128.866 204.645 131.032 201.97 131.032H167.604C164.929 131.032 162.758 128.865 162.758 126.185V83.508C162.758 80.8328 164.929 78.6613 167.604 78.6613H201.97C204.645 78.6613 206.817 80.8338 206.817 83.508Z" fill="white"/>
<path d="M201.97 131.215H167.604C164.831 131.215 162.573 128.959 162.573 126.184V83.5081C162.573 80.7348 164.83 78.4783 167.604 78.4783H201.97C204.743 78.4783 207 80.7348 207 83.5081V126.184C206.999 128.959 204.743 131.215 201.97 131.215ZM167.604 78.8454C165.032 78.8454 162.94 80.937 162.94 83.5091V126.185C162.94 128.756 165.032 130.849 167.604 130.849H201.97C204.54 130.849 206.633 128.756 206.633 126.185V83.5081C206.633 80.937 204.541 78.8444 201.97 78.8444H167.604V78.8454Z" fill="#242B2B"/>
<path d="M195.475 98.9556C195.475 105.648 190.049 111.074 183.357 111.074C176.664 111.074 171.238 105.648 171.238 98.9556C171.238 92.2609 176.664 86.8367 183.357 86.8367V98.9556H195.475Z" fill="#242B2B"/>
<path d="M198.759 96.8418H185.211V83.2927C192.692 83.2927 198.759 89.3572 198.759 96.8418Z" fill="#242B2B"/>
<path d="M194.746 98.2598C194.746 104.952 189.319 110.379 182.627 110.379C175.935 110.379 170.509 104.952 170.509 98.2598C170.509 91.5651 175.935 86.1409 182.627 86.1409V98.2598H194.746Z" fill="#007AFD"/>
<path d="M198.03 96.1469H184.481V82.5968C191.964 82.5968 198.03 88.6623 198.03 96.1469Z" fill="#FFD24F"/>
<path d="M198.655 114.592H169.974V116.84H198.655V114.592Z" fill="#E5E8FF"/>
<path d="M196.602 119.87H172.025V122.117H196.602V119.87Z" fill="#E5E8FF"/>
<path d="M151.819 142.528L149.453 144.241C148.883 144.654 148.109 144.622 147.575 144.166L146.609 143.34C146.217 143.005 145.681 142.897 145.186 143.041C144.79 143.157 144.394 143.251 143.99 143.326C143.485 143.42 143.053 143.758 142.854 144.236L142.366 145.407C142.098 146.056 141.417 146.436 140.725 146.323L137.835 145.862C137.143 145.75 136.617 145.179 136.562 144.481L136.466 143.214C136.426 142.698 136.122 142.242 135.669 141.993C135.31 141.799 134.961 141.582 134.621 141.353C134.194 141.06 133.654 140.996 133.176 141.194L132.002 141.676C131.353 141.943 130.608 141.731 130.195 141.161L128.48 138.793C128.069 138.225 128.098 137.448 128.557 136.917L129.381 135.953C129.718 135.561 129.824 135.026 129.68 134.53C129.567 134.133 129.471 133.734 129.398 133.333C129.302 132.824 128.966 132.395 128.489 132.197L127.316 131.711C126.668 131.438 126.29 130.761 126.398 130.068L126.862 127.177C126.971 126.485 127.544 125.957 128.244 125.904L129.509 125.805C130.025 125.765 130.482 125.463 130.728 125.01C130.926 124.652 131.139 124.302 131.371 123.962C131.662 123.536 131.728 122.995 131.531 122.517L131.049 121.343C130.782 120.694 130.992 119.946 131.561 119.533L133.928 117.82C134.497 117.407 135.274 117.44 135.807 117.897L136.771 118.721C137.163 119.058 137.698 119.164 138.194 119.02C138.589 118.904 138.988 118.812 139.389 118.735C139.897 118.643 140.327 118.303 140.525 117.825L141.014 116.653C141.282 116.005 141.962 115.625 142.654 115.738L145.545 116.198C146.236 116.311 146.762 116.882 146.819 117.582L146.915 118.849C146.955 119.365 147.257 119.818 147.71 120.068C148.069 120.262 148.418 120.479 148.76 120.71C149.186 121.002 149.727 121.067 150.205 120.87L151.378 120.388C152.026 120.119 152.776 120.331 153.187 120.898L154.902 123.267C155.315 123.837 155.281 124.613 154.825 125.146L154.001 126.11C153.664 126.503 153.556 127.036 153.701 127.533C153.813 127.929 153.91 128.327 153.983 128.729C154.079 129.238 154.415 129.668 154.894 129.867L156.067 130.353C156.713 130.623 157.092 131.301 156.982 131.994L156.518 134.884C156.41 135.577 155.836 136.105 155.137 136.158L153.871 136.257C153.356 136.296 152.902 136.599 152.653 137.052C152.455 137.412 152.242 137.76 152.009 138.1C151.718 138.526 151.654 139.069 151.85 139.545L152.334 140.72C152.6 141.37 152.389 142.115 151.819 142.528Z" fill="white"/>
<path d="M140.973 146.526C140.881 146.526 140.789 146.519 140.696 146.504L137.805 146.044C137.027 145.917 136.44 145.28 136.378 144.495L136.282 143.228C136.248 142.778 135.985 142.376 135.579 142.154C135.234 141.965 134.886 141.754 134.517 141.505C134.137 141.244 133.662 141.192 133.245 141.364L132.072 141.846C131.341 142.147 130.508 141.909 130.046 141.27L128.331 138.901C127.867 138.261 127.902 137.396 128.417 136.798L129.241 135.834C129.534 135.492 129.633 135.024 129.503 134.582C129.381 134.152 129.287 133.755 129.216 133.365C129.131 132.913 128.831 132.539 128.416 132.366L127.243 131.88C126.514 131.574 126.093 130.817 126.214 130.039L126.678 127.148C126.801 126.367 127.438 125.781 128.227 125.721L129.491 125.622C129.944 125.587 130.345 125.326 130.562 124.922C130.779 124.53 130.993 124.183 131.215 123.858C131.475 123.479 131.528 123.003 131.356 122.587L130.873 121.414C130.573 120.683 130.81 119.849 131.448 119.385L133.815 117.672C134.454 117.209 135.319 117.244 135.921 117.758L136.885 118.582C137.227 118.876 137.694 118.973 138.137 118.844C138.513 118.734 138.91 118.639 139.35 118.555C139.803 118.473 140.177 118.175 140.35 117.755L140.839 116.583C141.141 115.851 141.897 115.429 142.677 115.557L145.568 116.016C146.346 116.143 146.933 116.781 146.997 117.567L147.093 118.834C147.127 119.283 147.389 119.684 147.794 119.906C148.14 120.093 148.489 120.307 148.858 120.558C149.239 120.819 149.714 120.871 150.13 120.699L151.303 120.217C152.033 119.913 152.866 120.149 153.33 120.789L155.045 123.158C155.509 123.797 155.473 124.663 154.959 125.264L154.135 126.228C153.841 126.571 153.743 127.038 153.873 127.48C153.996 127.911 154.089 128.308 154.158 128.695C154.243 129.148 154.544 129.523 154.959 129.696L156.133 130.182C156.86 130.486 157.282 131.241 157.159 132.02L156.695 134.911C156.573 135.692 155.935 136.278 155.147 136.338L153.882 136.436C153.433 136.47 153.033 136.733 152.81 137.138C152.61 137.504 152.397 137.852 152.157 138.201C151.897 138.58 151.844 139.056 152.016 139.472L152.501 140.648C152.8 141.378 152.564 142.21 151.924 142.673L149.558 144.388C148.917 144.851 148.053 144.817 147.453 144.304L146.487 143.478C146.144 143.184 145.677 143.087 145.235 143.216C144.829 143.334 144.432 143.429 144.021 143.505C143.568 143.589 143.195 143.888 143.022 144.305L142.534 145.476C142.27 146.121 141.651 146.526 140.973 146.526ZM133.749 140.896C134.091 140.896 134.43 141 134.725 141.202C135.083 141.443 135.421 141.649 135.756 141.832C136.271 142.115 136.605 142.627 136.649 143.2L136.746 144.467C136.794 145.083 137.254 145.581 137.865 145.681L140.756 146.142C141.37 146.243 141.96 145.911 142.198 145.337L142.686 144.165C142.907 143.634 143.382 143.253 143.958 143.146C144.357 143.072 144.743 142.98 145.136 142.866C145.697 142.702 146.293 142.828 146.729 143.201L147.695 144.028C148.165 144.429 148.844 144.457 149.345 144.094L151.712 142.379C152.214 142.016 152.4 141.363 152.164 140.79L151.68 139.615C151.461 139.083 151.527 138.478 151.858 137.997C152.09 137.659 152.298 137.321 152.492 136.965C152.775 136.451 153.285 136.118 153.857 136.074L155.122 135.975C155.741 135.928 156.241 135.469 156.337 134.856L156.801 131.966C156.897 131.355 156.566 130.762 155.996 130.523L154.823 130.037C154.292 129.815 153.91 129.34 153.801 128.763C153.734 128.387 153.643 128.002 153.524 127.584C153.36 127.025 153.486 126.429 153.861 125.992L154.685 125.028C155.089 124.557 155.116 123.877 154.753 123.375L153.038 121.007C152.674 120.504 152.021 120.321 151.449 120.559L150.276 121.041C149.745 121.261 149.14 121.195 148.658 120.863C148.299 120.62 147.961 120.413 147.624 120.231C147.11 119.948 146.777 119.438 146.733 118.865L146.637 117.598C146.587 116.981 146.126 116.481 145.515 116.381L142.625 115.922C142.011 115.819 141.42 116.153 141.182 116.726L140.694 117.899C140.472 118.434 139.996 118.815 139.422 118.918C138.996 119 138.61 119.091 138.244 119.198C137.682 119.362 137.086 119.237 136.65 118.862L135.687 118.038C135.215 117.635 134.536 117.606 134.034 117.97L131.667 119.684C131.166 120.047 130.981 120.701 131.216 121.276L131.699 122.448C131.918 122.979 131.851 123.585 131.521 124.066C131.304 124.382 131.097 124.719 130.887 125.099C130.609 125.612 130.099 125.944 129.521 125.989L128.256 126.088C127.637 126.135 127.137 126.595 127.041 127.207L126.577 130.097C126.481 130.708 126.813 131.302 127.384 131.543L128.556 132.029C129.086 132.249 129.468 132.725 129.576 133.301C129.645 133.679 129.736 134.065 129.855 134.482C130.018 135.043 129.892 135.638 129.518 136.074L128.694 137.038C128.29 137.506 128.263 138.184 128.626 138.686L130.341 141.055C130.706 141.557 131.359 141.744 131.93 141.507L133.103 141.025C133.313 140.939 133.531 140.896 133.749 140.896Z" fill="#242B2B"/>
<path d="M141.69 141.02C147.205 141.02 151.677 136.548 151.677 131.032C151.677 125.516 147.205 121.044 141.69 121.044C136.174 121.044 131.702 125.516 131.702 131.032C131.702 136.548 136.174 141.02 141.69 141.02Z" fill="#C5CDE3"/>
<path d="M141.69 139.519C146.377 139.519 150.176 135.719 150.176 131.032C150.176 126.345 146.377 122.545 141.69 122.545C137.003 122.545 133.203 126.345 133.203 131.032C133.203 135.719 137.003 139.519 141.69 139.519Z" fill="white"/>
<path d="M141.701 139.7C139.013 139.7 136.362 138.457 134.668 136.118C133.31 134.243 132.762 131.95 133.128 129.664C133.495 127.377 134.728 125.369 136.605 124.011C138.481 122.652 140.774 122.105 143.059 122.471C145.346 122.837 147.354 124.071 148.712 125.948C151.516 129.819 150.648 135.251 146.776 138.055C145.243 139.165 143.464 139.7 141.701 139.7ZM141.673 122.727C139.938 122.727 138.252 123.27 136.82 124.308C135.024 125.609 133.842 127.531 133.492 129.721C133.142 131.911 133.665 134.107 134.966 135.903C137.651 139.611 142.854 140.442 146.562 137.757C150.269 135.072 151.102 129.87 148.416 126.161C147.115 124.365 145.192 123.182 143.002 122.832C142.558 122.762 142.114 122.727 141.673 122.727Z" fill="#242B2B"/>
<path d="M141.689 137.542C145.284 137.542 148.198 134.627 148.198 131.032C148.198 127.437 145.284 124.522 141.689 124.522C138.094 124.522 135.18 127.437 135.18 131.032C135.18 134.627 138.094 137.542 141.689 137.542Z" fill="#FFB902"/>
<path d="M143.579 132.401C143.579 132.634 143.538 132.842 143.456 133.028C143.374 133.215 143.256 133.375 143.106 133.51C142.955 133.645 142.773 133.753 142.56 133.834C142.346 133.914 142.111 133.966 141.852 133.987L141.767 134.853C141.764 134.874 141.758 134.894 141.748 134.91C141.739 134.926 141.721 134.939 141.696 134.95C141.671 134.961 141.635 134.969 141.591 134.976C141.546 134.983 141.491 134.987 141.423 134.987C141.337 134.987 141.267 134.983 141.214 134.974C141.162 134.966 141.12 134.955 141.091 134.94C141.062 134.925 141.041 134.906 141.032 134.881C141.023 134.857 141.02 134.83 141.026 134.8L141.111 133.979C140.995 133.963 140.886 133.943 140.784 133.916C140.681 133.891 140.588 133.863 140.504 133.832C140.42 133.801 140.349 133.769 140.288 133.736C140.227 133.704 140.182 133.673 140.15 133.641C140.119 133.611 140.097 133.565 140.084 133.504C140.071 133.443 140.063 133.354 140.063 133.235C140.063 133.144 140.067 133.068 140.072 133.008C140.077 132.95 140.087 132.903 140.1 132.871C140.113 132.838 140.13 132.816 140.15 132.804C140.171 132.792 140.194 132.786 140.221 132.786C140.257 132.786 140.307 132.806 140.375 132.846C140.443 132.887 140.529 132.931 140.634 132.98C140.739 133.028 140.867 133.073 141.016 133.113C141.166 133.154 141.342 133.174 141.544 133.174C141.86 133.174 142.094 133.115 142.248 132.998C142.402 132.881 142.479 132.725 142.479 132.531C142.479 132.401 142.445 132.295 142.38 132.211C142.314 132.127 142.225 132.054 142.115 131.991C142.004 131.927 141.879 131.87 141.74 131.821C141.602 131.771 141.459 131.718 141.314 131.661C141.168 131.604 141.025 131.539 140.887 131.463C140.748 131.387 140.623 131.294 140.513 131.184C140.402 131.073 140.313 130.939 140.248 130.781C140.182 130.623 140.148 130.432 140.148 130.209C140.148 130.006 140.182 129.822 140.25 129.656C140.317 129.49 140.414 129.346 140.541 129.221C140.667 129.097 140.823 128.997 141.008 128.92C141.193 128.843 141.403 128.791 141.637 128.764L141.718 127.951C141.721 127.93 141.727 127.912 141.736 127.896C141.745 127.881 141.764 127.868 141.789 127.856C141.814 127.844 141.849 127.835 141.892 127.83C141.936 127.825 141.991 127.822 142.062 127.822C142.146 127.822 142.215 127.826 142.27 127.834C142.326 127.842 142.368 127.853 142.398 127.868C142.427 127.883 142.446 127.903 142.454 127.927C142.462 127.951 142.467 127.978 142.467 128.008L142.386 128.772C142.461 128.784 142.54 128.798 142.624 128.817C142.708 128.836 142.786 128.858 142.859 128.884C142.932 128.91 142.998 128.936 143.057 128.965C143.117 128.993 143.157 129.018 143.181 129.041C143.204 129.065 143.221 129.087 143.233 129.11C143.245 129.133 143.254 129.162 143.261 129.195C143.269 129.229 143.273 129.269 143.276 129.317C143.279 129.364 143.28 129.419 143.28 129.48C143.28 129.564 143.278 129.633 143.274 129.687C143.27 129.74 143.262 129.782 143.251 129.81C143.24 129.838 143.228 129.858 143.215 129.867C143.202 129.877 143.186 129.881 143.166 129.881C143.131 129.881 143.08 129.864 143.013 129.828C142.945 129.793 142.862 129.755 142.764 129.715C142.666 129.675 142.552 129.636 142.424 129.602C142.296 129.567 142.155 129.549 142.001 129.549C141.861 129.549 141.741 129.562 141.641 129.59C141.541 129.617 141.46 129.654 141.399 129.703C141.337 129.751 141.29 129.809 141.261 129.877C141.232 129.945 141.216 130.018 141.216 130.099C141.216 130.226 141.25 130.333 141.318 130.419C141.385 130.505 141.474 130.58 141.587 130.642C141.699 130.704 141.825 130.761 141.967 130.811C142.108 130.863 142.253 130.917 142.4 130.973C142.546 131.03 142.691 131.096 142.833 131.169C142.974 131.243 143.101 131.335 143.211 131.445C143.321 131.554 143.41 131.686 143.478 131.841C143.545 131.996 143.579 132.183 143.579 132.401Z" fill="white"/>
<circle cx="510" cy="30" r="5" fill="#5DA9DC"/>
<rect x="509" y="129" width="13" height="13" fill="#E43270"/>
<rect x="350" y="132" width="7" height="7" fill="#5DA9DC"/>
<path d="M678 118L687.526 134.5H668.474L678 118Z" fill="#F4E14E"/>
<path d="M327.5 33L332.263 41.25H322.737L327.5 33Z" fill="#36C4B6"/>
<circle opacity="0.1" cx="934.022" cy="-4.93626" r="144.873" fill="#FADF4F"/>
<circle opacity="0.1" cx="1028.13" cy="139.936" r="144.873" fill="#DA3A7B"/>
<circle opacity="0.1" cx="822.582" cy="90.4073" r="96.5817" fill="#5DA9DC"/>
</g>
<defs>
<clipPath id="clip0_257_34933">
<rect width="1085" height="164" fill="white"/>
</clipPath>
</defs>
</svg>
