<svg width="40" height="40" viewBox="0 0 40 40" fill="none" xmlns="http://www.w3.org/2000/svg">
<rect width="40" height="40" rx="6" fill="white"/>
<path d="M12.9165 15.1111H14.4998H27.1665" stroke="#EF5854" stroke-width="1.5" stroke-linecap="round" stroke-linejoin="round"/>
<path d="M16.875 15.111V13.5277C16.875 13.1077 17.0418 12.705 17.3387 12.4081C17.6357 12.1112 18.0384 11.9443 18.4583 11.9443H21.625C22.0449 11.9443 22.4477 12.1112 22.7446 12.4081C23.0415 12.705 23.2083 13.1077 23.2083 13.5277V15.111M25.5833 15.111V26.1943C25.5833 26.6143 25.4165 27.017 25.1196 27.3139C24.8227 27.6109 24.4199 27.7777 24 27.7777H16.0833C15.6634 27.7777 15.2607 27.6109 14.9637 27.3139C14.6668 27.017 14.5 26.6143 14.5 26.1943V15.111H25.5833Z" stroke="#EF5854" stroke-width="1.5" stroke-linecap="round" stroke-linejoin="round"/>
</svg>
