<svg width="372" height="186" viewBox="0 0 372 186" fill="none" xmlns="http://www.w3.org/2000/svg">
<g filter="url(#filter0_b_223_15490)">
<path d="M0 186C0 161.574 4.81103 137.387 14.1584 114.821C23.5058 92.2543 37.2064 71.7498 54.4781 54.4781L186 186H0Z" fill="url(#paint0_linear_223_15490)"/>
</g>
<g filter="url(#filter1_b_223_15490)">
<path d="M186 0C161.574 -2.91276e-07 137.387 4.81103 114.821 14.1584C92.2543 23.5058 71.7498 37.2064 54.4781 54.4781L186 186L186 0Z" fill="url(#paint1_linear_223_15490)"/>
</g>
<g filter="url(#filter2_b_223_15490)">
<path d="M317.521 54.4781C282.64 19.5964 235.33 5.88257e-07 186 0V186L317.521 54.4781Z" fill="url(#paint2_linear_223_15490)"/>
</g>
<g filter="url(#filter3_b_223_15490)">
<path d="M372 186C372 161.574 367.189 137.387 357.842 114.821C348.494 92.2543 334.794 71.7498 317.522 54.4781L186 186H372Z" fill="#D8554E"/>
</g>
<g filter="url(#filter4_b_223_15490)">
<path d="M372 186C372 161.574 367.189 137.387 357.842 114.821C348.494 92.2543 334.794 71.7498 317.522 54.4781L186 186H372Z" fill="url(#paint3_linear_223_15490)"/>
</g>
<path d="M315 186C315 151.787 301.409 118.975 277.217 94.7832C253.025 70.591 220.213 57 186 57C151.787 57 118.975 70.591 94.7832 94.7832C70.591 118.975 57 151.787 57 186L315 186Z" fill="white"/>
<defs>
<filter id="filter0_b_223_15490" x="-4" y="50.4781" width="194" height="139.522" filterUnits="userSpaceOnUse" color-interpolation-filters="sRGB">
<feFlood flood-opacity="0" result="BackgroundImageFix"/>
<feGaussianBlur in="BackgroundImageFix" stdDeviation="2"/>
<feComposite in2="SourceAlpha" operator="in" result="effect1_backgroundBlur_223_15490"/>
<feBlend mode="normal" in="SourceGraphic" in2="effect1_backgroundBlur_223_15490" result="shape"/>
</filter>
<filter id="filter1_b_223_15490" x="50.4785" y="-4" width="139.521" height="194" filterUnits="userSpaceOnUse" color-interpolation-filters="sRGB">
<feFlood flood-opacity="0" result="BackgroundImageFix"/>
<feGaussianBlur in="BackgroundImageFix" stdDeviation="2"/>
<feComposite in2="SourceAlpha" operator="in" result="effect1_backgroundBlur_223_15490"/>
<feBlend mode="normal" in="SourceGraphic" in2="effect1_backgroundBlur_223_15490" result="shape"/>
</filter>
<filter id="filter2_b_223_15490" x="182" y="-4" width="139.521" height="194" filterUnits="userSpaceOnUse" color-interpolation-filters="sRGB">
<feFlood flood-opacity="0" result="BackgroundImageFix"/>
<feGaussianBlur in="BackgroundImageFix" stdDeviation="2"/>
<feComposite in2="SourceAlpha" operator="in" result="effect1_backgroundBlur_223_15490"/>
<feBlend mode="normal" in="SourceGraphic" in2="effect1_backgroundBlur_223_15490" result="shape"/>
</filter>
<filter id="filter3_b_223_15490" x="182" y="50.4781" width="194" height="139.522" filterUnits="userSpaceOnUse" color-interpolation-filters="sRGB">
<feFlood flood-opacity="0" result="BackgroundImageFix"/>
<feGaussianBlur in="BackgroundImageFix" stdDeviation="2"/>
<feComposite in2="SourceAlpha" operator="in" result="effect1_backgroundBlur_223_15490"/>
<feBlend mode="normal" in="SourceGraphic" in2="effect1_backgroundBlur_223_15490" result="shape"/>
</filter>
<filter id="filter4_b_223_15490" x="182" y="50.4781" width="194" height="139.522" filterUnits="userSpaceOnUse" color-interpolation-filters="sRGB">
<feFlood flood-opacity="0" result="BackgroundImageFix"/>
<feGaussianBlur in="BackgroundImageFix" stdDeviation="2"/>
<feComposite in2="SourceAlpha" operator="in" result="effect1_backgroundBlur_223_15490"/>
<feBlend mode="normal" in="SourceGraphic" in2="effect1_backgroundBlur_223_15490" result="shape"/>
</filter>
<linearGradient id="paint0_linear_223_15490" x1="145.5" y1="89" x2="-3.99999" y2="182.5" gradientUnits="userSpaceOnUse">
<stop stop-color="#F8CAC8"/>
<stop offset="1" stop-color="#D8554E"/>
</linearGradient>
<linearGradient id="paint1_linear_223_15490" x1="92.5" y1="-7.11463e-07" x2="186" y2="186" gradientUnits="userSpaceOnUse">
<stop stop-color="#ECBA24"/>
<stop offset="0.54697" stop-color="#FFF1C8"/>
</linearGradient>
<linearGradient id="paint2_linear_223_15490" x1="214" y1="108" x2="259.5" y2="13" gradientUnits="userSpaceOnUse">
<stop stop-color="#E7FBC7"/>
<stop offset="1" stop-color="#89C825"/>
</linearGradient>
<linearGradient id="paint3_linear_223_15490" x1="214" y1="164" x2="381.5" y2="111" gradientUnits="userSpaceOnUse">
<stop stop-color="#C7FB9E"/>
<stop offset="1" stop-color="#6FB438"/>
</linearGradient>
</defs>
</svg>