<svg width="20" height="20" viewBox="0 0 20 20" fill="none" xmlns="http://www.w3.org/2000/svg">
<path d="M9.39779 16.5124C9.76855 16.2886 10.2328 16.2886 10.6035 16.5124L14.8435 19.0714C15.727 19.6047 16.817 18.8126 16.5825 17.8075L15.4573 12.9843C15.3589 12.5625 15.5022 12.121 15.8296 11.8374L19.5814 8.58721C20.3608 7.91198 19.9452 6.63166 18.9177 6.54306L13.9784 6.11714C13.5481 6.08003 13.1735 5.80822 13.0047 5.41064L11.0746 0.86352C10.6723 -0.0842357 9.32902 -0.0842336 8.92673 0.863522L6.99661 5.41064C6.82785 5.80822 6.45324 6.08003 6.02292 6.11714L1.08012 6.54336C0.0531858 6.63191 -0.362802 7.91121 0.415648 8.58682L4.16185 11.8381C4.48821 12.1213 4.63127 12.5618 4.53367 12.9827L3.41399 17.8118C3.18106 18.8164 4.27048 19.607 5.15337 19.0741L9.39779 16.5124Z" fill="#0869FB"/>
</svg>
