<svg width="30" height="22" viewBox="0 0 30 22" fill="none" xmlns="http://www.w3.org/2000/svg">
<path d="M19.2029 18.8425C18.9959 18.8427 18.791 18.8036 18.5999 18.7274C18.4087 18.6512 18.2351 18.5394 18.089 18.3985L10.2118 10.8219C9.9248 10.5361 9.766 10.1534 9.76959 9.75605C9.77318 9.35874 9.93887 8.97868 10.231 8.69773C10.5231 8.41678 10.9182 8.25742 11.3313 8.25396C11.7444 8.25051 12.1423 8.40325 12.4395 8.67927L20.3167 16.2558C20.537 16.4678 20.687 16.7377 20.7477 17.0316C20.8085 17.3255 20.7773 17.6302 20.6581 17.907C20.5388 18.1839 20.337 18.4205 20.0779 18.587C19.8189 18.7535 19.5144 18.8424 19.2029 18.8425Z" fill="#0869FB"/>
<path d="M2.05595 17.6872C2.05574 17.4803 2.09486 17.2754 2.17105 17.0843C2.24724 16.8931 2.35901 16.7195 2.49993 16.5734L10.0765 8.69615C10.3623 8.40917 10.7451 8.25038 11.1424 8.25397C11.5397 8.25756 11.9198 8.42324 12.2007 8.71534C12.4817 9.00744 12.641 9.40259 12.6445 9.81566C12.6479 10.2287 12.4952 10.6267 12.2192 10.9238L4.64259 18.8011C4.43067 19.0213 4.16069 19.1713 3.8668 19.2321C3.5729 19.2928 3.26827 19.2616 2.99142 19.1424C2.71457 19.0232 2.47794 18.8213 2.31143 18.5623C2.14492 18.3033 2.05601 17.9988 2.05595 17.6872Z" fill="#0869FB"/>
<path d="M17.888 17.4763C17.8878 17.2694 17.9269 17.0645 18.0031 16.8733C18.0793 16.6822 18.191 16.5086 18.332 16.3625L25.9085 8.48522C26.1943 8.19823 26.5771 8.03944 26.9744 8.04303C27.3717 8.04662 27.7518 8.21231 28.0327 8.50441C28.3137 8.79651 28.4731 9.19165 28.4765 9.60473C28.48 10.0178 28.3272 10.4158 28.0512 10.7129L20.4746 18.5901C20.2627 18.8104 19.9927 18.9604 19.6988 19.0211C19.4049 19.0819 19.1003 19.0507 18.8235 18.9315C18.5466 18.8123 18.31 18.6104 18.1435 18.3514C17.9769 18.0924 17.888 17.7878 17.888 17.4763Z" fill="#0869FB"/>
</svg>
