<svg width="24" height="18" viewBox="0 0 24 18" fill="none" xmlns="http://www.w3.org/2000/svg">
<path d="M12.0007 0.875C6.58398 0.875 1.95815 4.24417 0.0839844 9C1.95815 13.7558 6.58398 17.125 12.0007 17.125C17.4173 17.125 22.0432 13.7558 23.9173 9C22.0432 4.24417 17.4173 0.875 12.0007 0.875ZM12.0007 14.4167C9.01065 14.4167 6.58398 11.99 6.58398 9C6.58398 6.01 9.01065 3.58333 12.0007 3.58333C14.9907 3.58333 17.4173 6.01 17.4173 9C17.4173 11.99 14.9907 14.4167 12.0007 14.4167ZM12.0007 5.75C10.2023 5.75 8.75065 7.20167 8.75065 9C8.75065 10.7983 10.2023 12.25 12.0007 12.25C13.799 12.25 15.2507 10.7983 15.2507 9C15.2507 7.20167 13.799 5.75 12.0007 5.75Z" fill="#0869FB"/>
</svg>
