<svg width="20" height="21" viewBox="0 0 20 21" fill="none" xmlns="http://www.w3.org/2000/svg">
<path d="M19.5304 8.33651H10.3532V12.1879H16.056C15.7257 16.0009 12.9354 16.8193 9.93309 16.8193C7.62878 16.8193 3.74437 14.6098 3.74437 10.3564C3.74437 6.10312 7.33088 3.981 10.4233 3.981C13.5157 3.981 14.805 5.42942 14.805 5.42942L17.1786 3.07076C17.1786 3.07076 14.7367 0.348633 10.2732 0.348633C4.58874 0.348633 0.195312 5.15238 0.195312 10.3564C0.195312 15.4104 4.32854 20.3643 10.4233 20.3643C15.7775 20.3643 19.6805 16.6914 19.6805 11.2672C19.6805 10.1163 19.5304 8.33651 19.5304 8.33651Z" fill="#0869FB"/>
</svg>
