<svg width="49" height="50" viewBox="0 0 49 50" fill="none" xmlns="http://www.w3.org/2000/svg">
<rect y="0.820312" width="49" height="49" rx="12" fill="#EFF5FF"/>
<path fill-rule="evenodd" clip-rule="evenodd" d="M28.3633 14.2832C28.3633 11.4994 26.1061 9.24219 23.3223 9.24219C20.5385 9.24219 18.2812 11.4994 18.2812 14.2832C18.2812 16.7992 20.1244 18.8847 22.5346 19.2632V15.7408H21.2543V14.2832H22.5346V13.1726C22.5346 11.9094 23.2874 11.2111 24.4387 11.2111C24.9903 11.2111 25.5673 11.3097 25.5673 11.3097V12.5504H24.9313C24.3055 12.5504 24.1097 12.9388 24.1097 13.338V14.2832H25.5077L25.2844 15.7408H24.1099V19.2637C26.5202 18.8854 28.3633 16.7999 28.3633 14.2832Z" fill="#0869FB"/>
<path d="M33.3778 26.1291C33.1484 25.8022 32.698 25.7222 32.3702 25.952L14.6224 38.3788C14.7531 38.5648 14.9691 38.6874 15.2142 38.687L15.2151 38.6874V38.687H32.7857C33.1851 38.687 33.5089 38.3631 33.5089 37.9633V26.5326C33.5066 26.388 33.461 26.2474 33.3778 26.1291ZM15.6308 25.9515C15.3035 25.7219 14.8527 25.8016 14.6232 26.1284C14.5401 26.2469 14.4944 26.3877 14.4922 26.5324L14.4926 37.9851L22.942 31.0635L15.6308 25.9515Z" fill="#0869FB"/>
</svg>
