<svg width="22" height="32" viewBox="0 0 22 32" fill="none" xmlns="http://www.w3.org/2000/svg">
<path d="M8.97426 12.9121H6.22344L3.01416 17.0383H7.59885L8.97426 12.9121Z" fill="#0869FB"/>
<path d="M19.5189 17.0383L16.3097 12.9121H13.5588L14.9342 17.0383H19.5189Z" fill="#0869FB"/>
<path d="M14.9344 17.0387H19.519L11.2666 26.6665L14.9344 17.0387Z" fill="#0869FB"/>
<path d="M7.59885 17.0387H3.01416L11.2666 26.6665L7.59885 17.0387Z" fill="#0869FB"/>
<path d="M8.97428 12.9121L7.59888 17.0383H14.9344L13.559 12.9121H8.97428Z" fill="#0869FB"/>
<path d="M11.2666 26.6665L7.59888 17.0387H14.9344L11.2666 26.6665Z" fill="#0869FB"/>
<path d="M11.2398 2.1333C8.7065 2.1333 6.54304 3.70903 5.6665 5.9333C6.54304 8.15757 8.7065 9.7333 11.2398 9.7333C13.7732 9.7333 15.9366 8.15757 16.8132 5.9333C15.9366 3.70903 13.7732 2.1333 11.2398 2.1333ZM11.2398 8.46663C9.84144 8.46663 8.7065 7.3317 8.7065 5.9333C8.7065 4.5349 9.84144 3.39997 11.2398 3.39997C12.6382 3.39997 13.7732 4.5349 13.7732 5.9333C13.7732 7.3317 12.6382 8.46663 11.2398 8.46663ZM11.2398 4.4133C10.3988 4.4133 9.71984 5.09223 9.71984 5.9333C9.71984 6.77437 10.3988 7.4533 11.2398 7.4533C12.0809 7.4533 12.7598 6.77437 12.7598 5.9333C12.7598 5.09223 12.0809 4.4133 11.2398 4.4133Z" fill="#0869FB"/>
</svg>
