<svg width="22" height="32" viewBox="0 0 22 32" fill="none" xmlns="http://www.w3.org/2000/svg">
<path d="M8.97426 12.9121H6.22344L3.01416 17.0383H7.59885L8.97426 12.9121Z" fill="#1ABFA1"/>
<path d="M19.5192 17.0383L16.3099 12.9121H13.5591L14.9345 17.0383H19.5192Z" fill="#1ABFA1"/>
<path d="M14.9344 17.0387H19.519L11.2666 26.6665L14.9344 17.0387Z" fill="#1ABFA1"/>
<path d="M7.59885 17.0387H3.01416L11.2666 26.6665L7.59885 17.0387Z" fill="#1ABFA1"/>
<path d="M8.97404 12.9121L7.59863 17.0383H14.9341L13.5587 12.9121H8.97404Z" fill="#1ABFA1"/>
<path d="M11.2664 26.6665L7.59863 17.0387H14.9341L11.2664 26.6665Z" fill="#1ABFA1"/>
<path d="M11.2403 2.1333C8.70699 2.1333 6.54353 3.70903 5.66699 5.9333C6.54353 8.15757 8.70699 9.7333 11.2403 9.7333C13.7737 9.7333 15.9371 8.15757 16.8137 5.9333C15.9371 3.70903 13.7737 2.1333 11.2403 2.1333ZM11.2403 8.46663C9.84193 8.46663 8.70699 7.3317 8.70699 5.9333C8.70699 4.5349 9.84193 3.39997 11.2403 3.39997C12.6387 3.39997 13.7737 4.5349 13.7737 5.9333C13.7737 7.3317 12.6387 8.46663 11.2403 8.46663ZM11.2403 4.4133C10.3993 4.4133 9.72033 5.09223 9.72033 5.9333C9.72033 6.77437 10.3993 7.4533 11.2403 7.4533C12.0814 7.4533 12.7603 6.77437 12.7603 5.9333C12.7603 5.09223 12.0814 4.4133 11.2403 4.4133Z" fill="#1ABFA1"/>
</svg>
