<svg width="20" height="21" viewBox="0 0 20 21" fill="none" xmlns="http://www.w3.org/2000/svg">
<path d="M5.15094 3.34536V8.71802L0.574219 10.8423V16.2794L5.15094 18.1897L9.84699 16.2794L14.6083 18.1897L19.2287 16.2371V11.2967L14.3441 8.71802V3.34536L9.84699 1.35547L5.15094 3.34536Z" fill="#1ABFA1"/>
<path d="M0.1875 10.7906V16.4329C0.1875 16.5656 0.266491 16.6858 0.388629 16.7379L5.03518 18.7293C5.03983 18.7313 5.04481 18.7306 5.04945 18.7323C5.08696 18.7465 5.12612 18.7562 5.16595 18.7562C5.20578 18.7562 5.24494 18.7465 5.28244 18.7323C5.28709 18.7306 5.29207 18.7313 5.29671 18.7293L9.8125 16.794L14.3283 18.7293C14.3329 18.7313 14.3379 18.7306 14.3426 18.7323C14.3801 18.7465 14.4192 18.7562 14.4591 18.7562C14.4989 18.7562 14.538 18.7465 14.5755 18.7323C14.5802 18.7306 14.5852 18.7313 14.5898 18.7293L19.2364 16.7379C19.2961 16.7123 19.347 16.6698 19.3827 16.6156C19.4185 16.5614 19.4375 16.4978 19.4375 16.4329V10.7906C19.4375 10.6791 19.3814 10.5752 19.2881 10.5135C19.2715 10.5026 19.2533 10.4953 19.2354 10.4876L19.236 10.4856L14.7909 8.58054V3.15702C14.7909 3.0455 14.7349 2.94162 14.6416 2.87989C14.625 2.86893 14.6071 2.86163 14.5892 2.85367L14.5898 2.85201L9.94327 0.860628C9.90191 0.843046 9.85744 0.833984 9.8125 0.833984C9.76756 0.833984 9.72309 0.843046 9.68173 0.860628L5.03518 2.85201L5.03618 2.854C5.01792 2.86163 5 2.86893 4.98341 2.87989C4.89014 2.94162 4.83405 3.0455 4.83405 3.15702V8.58054L0.388629 10.4856L0.389293 10.4876C0.371371 10.4953 0.353448 10.5026 0.336853 10.5135C0.243591 10.5752 0.1875 10.6791 0.1875 10.7906ZM14.4591 12.4209L10.6549 10.7906L14.4591 9.16036L18.2632 10.7906L14.4591 12.4209ZM14.1272 8.58054L13.1315 9.00736L10.1444 10.2875V5.36712L14.1272 3.66018V8.58054ZM9.4806 10.2872L6.49353 9.00703L5.49784 8.58021V3.66051L9.4806 5.36745V10.2872ZM5.16595 9.16036L8.97015 10.7906L5.16595 12.4209L1.36175 10.7906L5.16595 9.16036ZM0.851293 11.2941L4.83405 13.0011V17.9211L0.851293 16.2142V11.2941ZM5.49784 13.0007L9.4806 11.2938V16.2138L5.49784 17.9208V13.0007ZM10.1444 11.2941L14.1272 13.0011V17.9211L10.1444 16.2142V11.2941ZM18.7737 16.2142L14.7909 17.9211V13.0007L18.7737 11.2938V16.2142ZM9.8125 1.52674L13.6167 3.15702L9.8125 4.7873L6.0083 3.15702L9.8125 1.52674Z" fill="#1ABFA1"/>
</svg>
