<svg width="22" height="32" viewBox="0 0 22 32" fill="none" xmlns="http://www.w3.org/2000/svg">
<path d="M8.97438 12.9121H6.22357L3.01428 17.0383H7.59897L8.97438 12.9121Z" fill="#1ABFA1"/>
<path d="M19.5192 17.0383L16.3099 12.9121H13.5591L14.9345 17.0383H19.5192Z" fill="#1ABFA1"/>
<path d="M14.9345 17.0387H19.5192L11.2667 26.6665L14.9345 17.0387Z" fill="#1ABFA1"/>
<path d="M7.59897 17.0387H3.01428L11.2667 26.6665L7.59897 17.0387Z" fill="#1ABFA1"/>
<path d="M8.97441 12.9121L7.599 17.0383H14.9345L13.5591 12.9121H8.97441Z" fill="#1ABFA1"/>
<path d="M11.2668 26.6665L7.599 17.0387H14.9345L11.2668 26.6665Z" fill="#1ABFA1"/>
<path d="M11.2401 2.1333C8.70675 2.1333 6.54328 3.70903 5.66675 5.9333C6.54328 8.15757 8.70675 9.7333 11.2401 9.7333C13.7734 9.7333 15.9369 8.15757 16.8134 5.9333C15.9369 3.70903 13.7734 2.1333 11.2401 2.1333ZM11.2401 8.46663C9.84168 8.46663 8.70675 7.3317 8.70675 5.9333C8.70675 4.5349 9.84168 3.39997 11.2401 3.39997C12.6385 3.39997 13.7734 4.5349 13.7734 5.9333C13.7734 7.3317 12.6385 8.46663 11.2401 8.46663ZM11.2401 4.4133C10.399 4.4133 9.72008 5.09223 9.72008 5.9333C9.72008 6.77437 10.399 7.4533 11.2401 7.4533C12.0811 7.4533 12.7601 6.77437 12.7601 5.9333C12.7601 5.09223 12.0811 4.4133 11.2401 4.4133Z" fill="#1ABFA1"/>
</svg>
