<svg width="30" height="23" viewBox="0 0 30 23" fill="none" xmlns="http://www.w3.org/2000/svg">
<path d="M19.2029 19.3425C18.9959 19.3427 18.791 19.3036 18.5999 19.2274C18.4087 19.1512 18.2351 19.0394 18.089 18.8985L10.2118 11.3219C9.9248 11.0361 9.766 10.6534 9.76959 10.2561C9.77318 9.85874 9.93887 9.47868 10.231 9.19773C10.5231 8.91678 10.9182 8.75742 11.3313 8.75396C11.7444 8.75051 12.1423 8.90325 12.4395 9.17927L20.3167 16.7558C20.537 16.9678 20.687 17.2377 20.7477 17.5316C20.8085 17.8255 20.7773 18.1302 20.6581 18.407C20.5388 18.6839 20.337 18.9205 20.0779 19.087C19.8189 19.2535 19.5144 19.3424 19.2029 19.3425Z" fill="#1ABFA1"/>
<path d="M2.05595 18.1872C2.05574 17.9803 2.09486 17.7754 2.17105 17.5843C2.24724 17.3931 2.35901 17.2195 2.49993 17.0734L10.0765 9.19615C10.3623 8.90917 10.7451 8.75038 11.1424 8.75397C11.5397 8.75756 11.9198 8.92324 12.2007 9.21534C12.4817 9.50744 12.641 9.90259 12.6445 10.3157C12.6479 10.7287 12.4952 11.1267 12.2192 11.4238L4.64259 19.3011C4.43067 19.5213 4.16069 19.6713 3.8668 19.7321C3.5729 19.7928 3.26827 19.7616 2.99142 19.6424C2.71457 19.5232 2.47794 19.3213 2.31143 19.0623C2.14492 18.8033 2.05601 18.4988 2.05595 18.1872Z" fill="#1ABFA1"/>
<path d="M17.888 17.9763C17.8878 17.7694 17.9269 17.5645 18.0031 17.3733C18.0793 17.1822 18.191 17.0086 18.332 16.8625L25.9085 8.98522C26.1943 8.69823 26.5771 8.53944 26.9744 8.54303C27.3717 8.54662 27.7518 8.71231 28.0327 9.00441C28.3137 9.29651 28.4731 9.69165 28.4765 10.1047C28.48 10.5178 28.3272 10.9158 28.0512 11.2129L20.4746 19.0901C20.2627 19.3104 19.9927 19.4604 19.6988 19.5211C19.4049 19.5819 19.1003 19.5507 18.8235 19.4315C18.5466 19.3123 18.31 19.1104 18.1435 18.8514C17.9769 18.5924 17.888 18.2878 17.888 17.9763Z" fill="#1ABFA1"/>
</svg>
