<svg width="26" height="26" viewBox="0 0 26 26" fill="none" xmlns="http://www.w3.org/2000/svg">
<path d="M13.0007 4.875C7.58398 4.875 2.95815 8.24417 1.08398 13C2.95815 17.7558 7.58398 21.125 13.0007 21.125C18.4173 21.125 23.0432 17.7558 24.9173 13C23.0432 8.24417 18.4173 4.875 13.0007 4.875ZM13.0007 18.4167C10.0107 18.4167 7.58398 15.99 7.58398 13C7.58398 10.01 10.0107 7.58333 13.0007 7.58333C15.9907 7.58333 18.4173 10.01 18.4173 13C18.4173 15.99 15.9907 18.4167 13.0007 18.4167ZM13.0007 9.75C11.2023 9.75 9.75065 11.2017 9.75065 13C9.75065 14.7983 11.2023 16.25 13.0007 16.25C14.799 16.25 16.2507 14.7983 16.2507 13C16.2507 11.2017 14.799 9.75 13.0007 9.75Z" fill="#1ABFA1"/>
</svg>
