<svg width="22" height="32" viewBox="0 0 22 32" fill="none" xmlns="http://www.w3.org/2000/svg">
<path d="M8.97438 12.9121H6.22357L3.01428 17.0383H7.59897L8.97438 12.9121Z" fill="#1ABFA1"/>
<path d="M19.5192 17.0383L16.3099 12.9121H13.5591L14.9345 17.0383H19.5192Z" fill="#1ABFA1"/>
<path d="M14.9345 17.0387H19.5192L11.2667 26.6665L14.9345 17.0387Z" fill="#1ABFA1"/>
<path d="M7.59897 17.0387H3.01428L11.2667 26.6665L7.59897 17.0387Z" fill="#1ABFA1"/>
<path d="M8.97441 12.9121L7.599 17.0383H14.9345L13.5591 12.9121H8.97441Z" fill="#1ABFA1"/>
<path d="M11.2668 26.6665L7.599 17.0387H14.9345L11.2668 26.6665Z" fill="#1ABFA1"/>
<g clip-path="url(#clip0_1509_88134)">
<path fill-rule="evenodd" clip-rule="evenodd" d="M14.0208 3.27075H13.2292C13.2292 2.85083 13.0624 2.4481 12.7654 2.15117C12.4685 1.85423 12.0658 1.68742 11.6458 1.68742C11.2259 1.68742 10.8232 1.85423 10.5262 2.15117C10.2293 2.4481 10.0625 2.85083 10.0625 3.27075V4.45825H13.625C13.9399 4.45825 14.242 4.58336 14.4647 4.80606C14.6874 5.02876 14.8125 5.33081 14.8125 5.64575V8.02075C14.8125 8.3357 14.6874 8.63774 14.4647 8.86044C14.242 9.08314 13.9399 9.20825 13.625 9.20825H8.875C8.56006 9.20825 8.25801 9.08314 8.03531 8.86044C7.81261 8.63774 7.6875 8.3357 7.6875 8.02075V5.64575C7.6875 5.33081 7.81261 5.02876 8.03531 4.80606C8.25801 4.58336 8.56006 4.45825 8.875 4.45825H9.27083V3.27075C9.27083 2.64086 9.52106 2.03677 9.96645 1.59137C10.4119 1.14597 11.0159 0.895752 11.6458 0.895752C12.2757 0.895752 12.8798 1.14597 13.3252 1.59137C13.7706 2.03677 14.0208 2.64086 14.0208 3.27075ZM13.625 5.24992H8.875C8.77002 5.24992 8.66934 5.29162 8.5951 5.36586C8.52087 5.44009 8.47917 5.54077 8.47917 5.64575V8.02075C8.47917 8.12573 8.52087 8.22642 8.5951 8.30065C8.66934 8.37488 8.77002 8.41659 8.875 8.41659H13.625C13.73 8.41659 13.8307 8.37488 13.9049 8.30065C13.9791 8.22642 14.0208 8.12573 14.0208 8.02075V5.64575C14.0208 5.54077 13.9791 5.44009 13.9049 5.36586C13.8307 5.29162 13.73 5.24992 13.625 5.24992Z" fill="#1ABFA1"/>
<rect x="8.1991" y="5" width="5.88773" height="4" fill="#1ABFA1"/>
</g>
<defs>
<clipPath id="clip0_1509_88134">
<rect width="9.5" height="9.5" fill="white" transform="translate(6.5 0.5)"/>
</clipPath>
</defs>
</svg>
