<svg width="18" height="22" viewBox="0 0 18 22" fill="none" xmlns="http://www.w3.org/2000/svg">
<path d="M15.75 8.97497V18.425H2.25V16.4583C2.25142 15.832 2.42668 15.2183 2.75626 14.6857C3.08583 14.1531 3.55678 13.7224 4.11667 13.4416L6.5 12.2333C6.83542 12.065 7.11746 11.8067 7.31464 11.4874C7.51182 11.1681 7.61639 10.8003 7.61667 10.425V8.29997L6.68333 8.76664C6.55264 8.83202 6.43745 8.92458 6.34546 9.03812C6.25348 9.15167 6.18683 9.28357 6.15 9.42498L5.66667 11.425C5.64459 11.5026 5.60545 11.5743 5.5521 11.6349C5.49876 11.6954 5.43255 11.7433 5.35833 11.775L4.10833 12.2666C4.04653 12.2935 3.97988 12.3073 3.9125 12.3073C3.84512 12.3073 3.77847 12.2935 3.71667 12.2666L1.175 11.1333C1.08582 11.0944 1.00994 11.0303 0.95665 10.9489C0.903362 10.8675 0.874985 10.7723 0.875 10.675V4.00831C0.876179 3.73912 0.984066 3.48139 1.175 3.29164L1.55 2.91664L0.95 1.71664C0.900763 1.61834 0.875085 1.50992 0.875 1.39997C0.875 1.26515 0.928557 1.13586 1.02389 1.04053C1.11922 0.945197 1.24851 0.89164 1.38333 0.89164H7.625C8.68941 0.888353 9.74403 1.09489 10.7286 1.49944C11.7131 1.90399 12.6083 2.49862 13.3628 3.24933C14.1174 4.00005 14.7167 4.89213 15.1263 5.87458C15.5359 6.85702 15.7478 7.91056 15.75 8.97497ZM16.5833 19.1H1.40833C1.27352 19.1 1.14422 19.1535 1.04889 19.2489C0.953556 19.3442 0.9 19.4735 0.9 19.6083V20.6166C0.9 20.7515 0.953556 20.8808 1.04889 20.9761C1.14422 21.0714 1.27352 21.125 1.40833 21.125H16.5917C16.7265 21.125 16.8558 21.0714 16.9511 20.9761C17.0464 20.8808 17.1 20.7515 17.1 20.6166V19.6083C17.1 19.4735 17.0464 19.3442 16.9511 19.2489C16.8558 19.1535 16.7265 19.1 16.5917 19.1H16.5833ZM3.08333 4.93331C2.91852 4.93331 2.7574 4.98218 2.62036 5.07375C2.48332 5.16532 2.37651 5.29547 2.31343 5.44774C2.25036 5.60001 2.23386 5.76757 2.26601 5.92922C2.29817 6.09087 2.37753 6.23935 2.49408 6.3559C2.61062 6.47244 2.75911 6.55181 2.92076 6.58396C3.08241 6.61612 3.24997 6.59961 3.40224 6.53654C3.55451 6.47347 3.68466 6.36666 3.77623 6.22962C3.86779 6.09257 3.91667 5.93146 3.91667 5.76664C3.91777 5.6572 3.8973 5.54862 3.85643 5.4471C3.81557 5.34557 3.7551 5.25309 3.67849 5.17493C3.60188 5.09678 3.51063 5.03447 3.40994 4.99159C3.30925 4.9487 3.2011 4.92606 3.09167 4.92497L3.08333 4.93331Z" fill="#CFCFCF"/>
</svg>
