<svg width="18" height="21" viewBox="0 0 18 21" fill="none" xmlns="http://www.w3.org/2000/svg">
<mask id="mask0_1509_88100" style="mask-type:alpha" maskUnits="userSpaceOnUse" x="0" y="0" width="18" height="21">
<path d="M1 16.5L1.0025 12.5215C1.0025 12.3889 1.05518 12.2617 1.14895 12.1679C1.24271 12.0742 1.36989 12.0215 1.5025 12.0215H6.5035C6.9645 12.0215 6.962 11.6125 6.962 10.6395C6.962 9.6665 4.511 8.847 4.511 5.4265C4.511 2.006 7.05 1 9.16 1C11.27 1 13.5685 2.006 13.5685 5.4265C13.5685 8.847 11.1305 9.391 11.1305 10.6395C11.1305 11.888 11.1305 12.0215 11.5205 12.0215H16.5005C16.6331 12.0215 16.7603 12.0742 16.8541 12.1679C16.9478 12.2617 17.0005 12.3889 17.0005 12.5215V16.5H1Z" fill="white" stroke="white" stroke-width="1.5" stroke-linejoin="round"/>
<path d="M1 19.5H17" stroke="white" stroke-width="1.5" stroke-linecap="round" stroke-linejoin="round"/>
</mask>
<g mask="url(#mask0_1509_88100)">
<path d="M-3 -1.5H21V22.5H-3V-1.5Z" fill="#CFCFCF"/>
</g>
</svg>
