<svg width="17" height="19" viewBox="0 0 17 19" fill="none" xmlns="http://www.w3.org/2000/svg">
<path d="M5.33229 4.43333C5.33229 3.59348 5.66592 2.78803 6.25979 2.19416C6.85365 1.6003 7.65911 1.26667 8.49896 1.26667C9.33881 1.26667 10.1443 1.6003 10.7381 2.19416C11.332 2.78803 11.6656 3.59348 11.6656 4.43333V5.06667H12.9323V4.43333C12.9323 3.25754 12.4652 2.1299 11.6338 1.29849C10.8024 0.467082 9.67475 0 8.49896 0C7.32316 0 6.19553 0.467082 5.36412 1.29849C4.53271 2.1299 4.06562 3.25754 4.06562 4.43333V7.6H2.16562C1.66171 7.6 1.17844 7.80018 0.822122 8.1565C0.465803 8.51282 0.265625 8.99609 0.265625 9.5V17.1C0.265625 17.6039 0.465803 18.0872 0.822122 18.4435C1.17844 18.7998 1.66171 19 2.16562 19H14.8323C15.3362 19 15.8195 18.7998 16.1758 18.4435C16.5321 18.0872 16.7323 17.6039 16.7323 17.1V9.5C16.7323 8.99609 16.5321 8.51282 16.1758 8.1565C15.8195 7.80018 15.3362 7.6 14.8323 7.6H5.33229V4.43333Z" fill="#CFCFCF"/>
</svg>
