<svg width="21" height="20" viewBox="0 0 21 20" fill="none" xmlns="http://www.w3.org/2000/svg">
<path d="M17.0027 7.81233L18.7089 9.51858L12.605 15.6188L10.3195 16.1973L10.9008 13.915L17.0027 7.81233ZM6.58561 1.14983L5.34695 2.25971L1.72808 5.50118H6.58561V1.14983ZM13.0665 16.7592L9.62598 17.6298C9.57716 17.6424 9.52691 17.6487 9.47648 17.6485C9.38365 17.6485 9.29203 17.6273 9.20864 17.5865C9.12524 17.5457 9.05226 17.4864 8.99528 17.4131C8.93829 17.3398 8.8988 17.2545 8.87983 17.1636C8.86086 17.0727 8.8629 16.9787 8.8858 16.8888L9.76086 13.4519C9.78782 13.3458 9.84299 13.2489 9.92052 13.1716L15.2424 7.84971V0.80127C15.2424 0.693525 15.1996 0.590194 15.1234 0.514007C15.0472 0.43782 14.9439 0.39502 14.8361 0.39502H7.80802V6.11055C7.80802 6.27217 7.74381 6.42716 7.62953 6.54144C7.51525 6.65572 7.36026 6.71993 7.19864 6.71993H0.744141V19.1987C0.744141 19.3065 0.786942 19.4098 0.863129 19.486C0.939315 19.5622 1.04265 19.605 1.15039 19.605H14.8345C14.9423 19.605 15.0456 19.5622 15.1218 19.486C15.198 19.4098 15.2408 19.3065 15.2408 19.1987V14.7064L13.348 16.5991C13.2704 16.6769 13.1731 16.7322 13.0665 16.7592ZM20.05 7.18711L19.3321 6.46886C19.2011 6.33837 19.0238 6.26511 18.8389 6.26511C18.654 6.26511 18.4767 6.33837 18.3457 6.46886L17.8643 6.95068L19.5706 8.65693L20.0504 8.17186C20.1804 8.04096 20.2533 7.86392 20.2533 7.6794C20.2532 7.49489 20.1801 7.31791 20.05 7.18711Z" fill="#CFCFCF"/>
</svg>
