<svg width="28" height="28" viewBox="0 0 28 28" fill="none" xmlns="http://www.w3.org/2000/svg">
<g clip-path="url(#clip0_1509_88112)">
<ellipse cx="14.2341" cy="13.7469" rx="8.98744" ry="9.11365" fill="#CFCFCF"/>
<path fill-rule="evenodd" clip-rule="evenodd" d="M13.9919 23.7673C8.46176 23.7673 3.96045 19.266 3.96045 13.7197C3.96045 8.18954 8.46176 3.68823 13.9919 3.68823C19.5382 3.68823 24.0395 8.18954 24.0395 13.7197C24.0395 19.266 19.5382 23.7673 13.9919 23.7673ZM13.9919 4.97432C9.1691 4.97432 5.24654 8.89689 5.24654 13.7197C5.24654 18.5586 9.1691 22.4812 13.9919 22.4812C18.8308 22.4812 22.7534 18.5586 22.7534 13.7197C22.7534 8.89689 18.8308 4.97432 13.9919 4.97432Z" fill="#CFCFCF"/>
<path fill-rule="evenodd" clip-rule="evenodd" d="M13.9909 5.46356C13.5909 5.46356 13.2636 5.13627 13.2636 4.73624V1.4451C13.2636 1.04507 13.5909 0.717773 13.9909 0.717773C14.3909 0.717773 14.7182 1.04507 14.7182 1.4451V4.73624C14.7182 5.13627 14.3909 5.46356 13.9909 5.46356ZM26.2827 14.446H22.9734C22.5733 14.446 22.246 14.1187 22.246 13.7187C22.246 13.3187 22.5733 12.9914 22.9734 12.9914H26.2827C26.6827 12.9914 27.01 13.3187 27.01 13.7187C27.01 14.1187 26.6827 14.446 26.2827 14.446ZM13.9909 26.7378C13.5909 26.7378 13.2636 26.4105 13.2636 26.0105V22.7011C13.2636 22.3011 13.5909 21.9738 13.9909 21.9738C14.3909 21.9738 14.7182 22.3011 14.7182 22.7011V26.0105C14.7182 26.4105 14.3909 26.7378 13.9909 26.7378ZM5.00845 14.446H1.71731C1.31729 14.446 0.98999 14.1187 0.98999 13.7187C0.98999 13.3187 1.31729 12.9914 1.71731 12.9914H5.00845C5.40848 12.9914 5.73578 13.3187 5.73578 13.7187C5.73578 14.1187 5.40848 14.446 5.00845 14.446Z" fill="#CFCFCF"/>
<path d="M13.7319 18.7004V8.70044H14.3726V18.7004H13.7319ZM15.4312 12.0012C15.3999 11.6861 15.2658 11.4413 15.0288 11.2668C14.7918 11.0924 14.4702 11.0051 14.064 11.0051C13.7879 11.0051 13.5549 11.0442 13.3647 11.1223C13.1746 11.1978 13.0288 11.3033 12.9272 11.4387C12.8283 11.5741 12.7788 11.7278 12.7788 11.8997C12.7736 12.0429 12.8035 12.1679 12.8687 12.2747C12.9364 12.3814 13.0288 12.4739 13.146 12.552C13.2632 12.6275 13.3986 12.6939 13.5522 12.7512C13.7059 12.8059 13.87 12.8528 14.0444 12.8918L14.7632 13.0637C15.1121 13.1418 15.4325 13.246 15.7241 13.3762C16.0158 13.5064 16.2684 13.6666 16.4819 13.8567C16.6955 14.0468 16.8608 14.2708 16.978 14.5286C17.0978 14.7864 17.159 15.0819 17.1616 15.4153C17.159 15.9049 17.034 16.3293 16.7866 16.6887C16.5418 17.0455 16.1877 17.3228 15.7241 17.5208C15.2632 17.7161 14.7072 17.8137 14.0562 17.8137C13.4103 17.8137 12.8478 17.7148 12.3687 17.5168C11.8921 17.3189 11.5197 17.026 11.2515 16.6379C10.9858 16.2473 10.8465 15.7642 10.8335 15.1887H12.4702C12.4884 15.4569 12.5653 15.6809 12.7007 15.8606C12.8387 16.0377 13.0223 16.1718 13.2515 16.2629C13.4832 16.3515 13.745 16.3958 14.0366 16.3958C14.3231 16.3958 14.5718 16.3541 14.7827 16.2708C14.9963 16.1874 15.1616 16.0715 15.2788 15.9231C15.396 15.7747 15.4546 15.6041 15.4546 15.4114C15.4546 15.2317 15.4012 15.0806 15.2944 14.9583C15.1903 14.8359 15.0366 14.7317 14.8335 14.6458C14.633 14.5598 14.3869 14.4817 14.0952 14.4114L13.2241 14.1926C12.5496 14.0286 12.0171 13.7721 11.6265 13.4231C11.2358 13.0741 11.0418 12.6041 11.0444 12.0129C11.0418 11.5286 11.1707 11.1054 11.4312 10.7434C11.6942 10.3814 12.0549 10.0989 12.5132 9.89575C12.9715 9.69263 13.4924 9.59106 14.0757 9.59106C14.6694 9.59106 15.1877 9.69263 15.6304 9.89575C16.0757 10.0989 16.422 10.3814 16.6694 10.7434C16.9168 11.1054 17.0444 11.5247 17.0522 12.0012H15.4312Z" fill="white"/>
</g>
<defs>
<clipPath id="clip0_1509_88112">
<rect width="27.4419" height="27.4419" fill="white" transform="translate(0.279053 0.00683594)"/>
</clipPath>
</defs>
</svg>
