<svg width="30" height="22" viewBox="0 0 30 22" fill="none" xmlns="http://www.w3.org/2000/svg">
<path d="M19.1989 18.8425C18.992 18.8427 18.7871 18.8036 18.596 18.7274C18.4048 18.6512 18.2312 18.5394 18.0851 18.3985L10.2079 10.8219C9.92089 10.5361 9.7621 10.1534 9.76568 9.75605C9.76927 9.35874 9.93496 8.97868 10.2271 8.69773C10.5192 8.41678 10.9143 8.25742 11.3274 8.25396C11.7405 8.25051 12.1384 8.40325 12.4356 8.67927L20.3128 16.2558C20.5331 16.4678 20.683 16.7377 20.7438 17.0316C20.8046 17.3255 20.7734 17.6302 20.6542 17.907C20.5349 18.1839 20.3331 18.4205 20.074 18.587C19.815 18.7535 19.5105 18.8424 19.1989 18.8425Z" fill="#CFCFCF"/>
<path d="M2.05985 17.6872C2.05965 17.4803 2.09876 17.2754 2.17496 17.0843C2.25115 16.8931 2.36292 16.7195 2.50384 16.5734L10.0804 8.69615C10.3662 8.40917 10.749 8.25038 11.1463 8.25397C11.5436 8.25756 11.9237 8.42324 12.2046 8.71534C12.4856 9.00744 12.6449 9.40259 12.6484 9.81566C12.6518 10.2287 12.4991 10.6267 12.2231 10.9238L4.6465 18.8011C4.43458 19.0213 4.1646 19.1713 3.8707 19.2321C3.5768 19.2928 3.27217 19.2616 2.99533 19.1424C2.71848 19.0232 2.48184 18.8213 2.31533 18.5623C2.14882 18.3033 2.05992 17.9988 2.05985 17.6872Z" fill="#CFCFCF"/>
<path d="M17.888 17.4763C17.8878 17.2694 17.9269 17.0645 18.0031 16.8733C18.0793 16.6822 18.191 16.5086 18.332 16.3625L25.9085 8.48522C26.1943 8.19823 26.5771 8.03944 26.9744 8.04303C27.3717 8.04662 27.7518 8.21231 28.0327 8.50441C28.3137 8.79651 28.4731 9.19165 28.4765 9.60473C28.48 10.0178 28.3272 10.4158 28.0512 10.7129L20.4746 18.5901C20.2627 18.8104 19.9927 18.9604 19.6988 19.0211C19.4049 19.0819 19.1003 19.0507 18.8235 18.9315C18.5466 18.8123 18.31 18.6104 18.1435 18.3514C17.9769 18.0924 17.888 17.7878 17.888 17.4763Z" fill="#CFCFCF"/>
</svg>
