<svg width="20" height="20" viewBox="0 0 20 20" fill="none" xmlns="http://www.w3.org/2000/svg">
<path d="M11.2653 5.65047L17.1045 11.5224C17.3025 11.7221 17.4278 11.964 17.4659 12.2201C17.504 12.4761 17.4532 12.7359 17.3196 12.9691C17.186 13.2024 16.9749 13.3995 16.711 13.5378C16.447 13.676 16.1409 13.7496 15.8283 13.75H4.14987C3.83725 13.7496 3.53118 13.676 3.26721 13.5378C3.00324 13.3995 2.79219 13.2024 2.65857 12.9691C2.52494 12.7359 2.47423 12.4761 2.51231 12.2201C2.55038 11.964 2.6757 11.7221 2.87369 11.5224L8.71291 5.65047C8.86795 5.49497 9.06279 5.36972 9.28344 5.28374C9.50409 5.19775 9.74508 5.15316 9.98909 5.15316C10.2331 5.15316 10.4741 5.19775 10.6947 5.28374C10.9154 5.36972 11.1102 5.49497 11.2653 5.65047Z" fill="black"/>
</svg>
