<svg width="17" height="16" viewBox="0 0 17 16" fill="none" xmlns="http://www.w3.org/2000/svg">
<path d="M14.0391 4H12.7057H2.03906" stroke="#E84B47" stroke-width="1.5" stroke-linecap="round" stroke-linejoin="round"/>
<path d="M10.7031 3.99992V2.66659C10.7031 2.31296 10.5626 1.97382 10.3126 1.72378C10.0626 1.47373 9.72341 1.33325 9.36979 1.33325H6.70312C6.3495 1.33325 6.01036 1.47373 5.76032 1.72378C5.51027 1.97382 5.36979 2.31296 5.36979 2.66659V3.99992M3.36979 3.99992V13.3333C3.36979 13.6869 3.51027 14.026 3.76032 14.2761C4.01036 14.5261 4.3495 14.6666 4.70312 14.6666H11.3698C11.7234 14.6666 12.0626 14.5261 12.3126 14.2761C12.5626 14.026 12.7031 13.6869 12.7031 13.3333V3.99992H3.36979Z" stroke="#E84B47" stroke-width="1.5" stroke-linecap="round" stroke-linejoin="round"/>
</svg>
