<svg width="73" height="72" viewBox="0 0 73 72" fill="none" xmlns="http://www.w3.org/2000/svg">
<path d="M36.3933 50.9818C37.2423 50.9818 37.9544 50.6942 38.5297 50.1189C39.103 49.5456 39.3897 48.8344 39.3897 47.9855C39.3897 47.1365 39.103 46.4244 38.5297 45.8491C37.9544 45.2757 37.2423 44.9891 36.3933 44.9891C35.5443 44.9891 34.8332 45.2757 34.2599 45.8491C33.6846 46.4244 33.397 47.1365 33.397 47.9855C33.397 48.8344 33.6846 49.5456 34.2599 50.1189C34.8332 50.6942 35.5443 50.9818 36.3933 50.9818ZM36.3933 65.9636C32.2484 65.9636 28.3531 65.1766 24.7075 63.6025C21.0619 62.0304 17.8908 59.896 15.1941 57.1993C12.4973 54.5026 10.3629 51.3314 8.79082 47.6858C7.21673 44.0402 6.42969 40.145 6.42969 36C6.42969 31.855 7.21673 27.9598 8.79082 24.3142C10.3629 20.6686 12.4973 17.4975 15.1941 14.8007C17.8908 12.104 21.0619 9.9686 24.7075 8.39451C28.3531 6.82242 32.2484 6.03638 36.3933 6.03638C40.5383 6.03638 44.4336 6.82242 48.0791 8.39451C51.7247 9.9686 54.8959 12.104 57.5926 14.8007C60.2893 17.4975 62.4237 20.6686 63.9958 24.3142C65.5699 27.9598 66.3569 31.855 66.3569 36C66.3569 40.145 65.5699 44.0402 63.9958 47.6858C62.4237 51.3314 60.2893 54.5026 57.5926 57.1993C54.8959 59.896 51.7247 62.0304 48.0791 63.6025C44.4336 65.1766 40.5383 65.9636 36.3933 65.9636ZM36.3933 38.9964C37.2423 38.9964 37.9544 38.7087 38.5297 38.1334C39.103 37.5601 39.3897 36.849 39.3897 36V24.0146C39.3897 23.1656 39.103 22.4535 38.5297 21.8781C37.9544 21.3048 37.2423 21.0182 36.3933 21.0182C35.5443 21.0182 34.8332 21.3048 34.2599 21.8781C33.6846 22.4535 33.397 23.1656 33.397 24.0146V36C33.397 36.849 33.6846 37.5601 34.2599 38.1334C34.8332 38.7087 35.5443 38.9964 36.3933 38.9964Z" fill="#F99F35"/>
</svg>
