<svg width="20" height="20" viewBox="0 0 20 20" fill="none" xmlns="http://www.w3.org/2000/svg">
<path d="M8.50747 3.58405C8.43284 5.55278 8.19955 6.70609 7.05454 8.40858C6.85969 8.21925 6.59648 8.10004 6.30848 8.10004H3.07717C2.48976 8.10004 2 8.58977 2 9.17721V15.6398C2 16.2272 2.48973 16.717 3.07717 16.717H6.30848C6.61064 16.717 6.8855 16.5863 7.08259 16.3804C7.22296 16.4917 7.35381 16.5939 7.50333 16.6833C7.82102 16.8734 8.19143 16.9877 8.66465 17.0367C9.61096 17.1347 11.1016 17.0615 14.5663 17.076C14.69 17.0759 14.8131 17.0314 14.9085 16.9525C15.594 16.3933 15.9307 15.8181 16.0866 15.2078C16.1465 15.1753 16.2001 15.1312 16.2436 15.0788C16.7634 14.4292 16.973 13.6792 16.8831 13.0032C16.9119 12.9797 16.9384 12.9535 16.9616 12.9247C17.5645 12.1712 17.7556 11.2798 17.5394 10.5292C17.8929 10.0704 18.0457 9.53164 17.9882 9.03124C17.9177 8.41764 17.5251 7.86479 16.9336 7.60635C16.8666 7.57718 16.7936 7.56177 16.7205 7.56152H12.2998C12.5364 5.79504 12.3558 4.1757 11.7332 3.07936C11.3805 2.45813 10.842 2.094 10.3027 2.01347C9.33397 1.89452 8.60028 2.57491 8.50747 3.58405ZM10.7963 3.6121C11.2868 4.47587 11.5162 6.17487 11.1665 7.99906C11.1074 8.30873 11.3787 8.63756 11.6938 8.63856H16.5633C16.7645 8.75101 16.8901 8.92331 16.9166 9.15473C16.9415 9.37162 16.8479 9.63308 16.6305 9.89531H14.7455C14.461 9.89531 14.1993 10.1493 14.1993 10.4339C14.1993 10.7184 14.461 10.9765 14.7455 10.9725H16.5294C16.5704 11.2773 16.4951 11.6606 16.2489 12.0496H14.7455C14.461 12.0496 14.1993 12.3036 14.1993 12.5882C14.1993 12.8727 14.461 13.1308 14.7455 13.1268H15.8114C15.8523 13.4316 15.7771 13.8149 15.5309 14.204H14.7455C14.461 14.204 14.1993 14.4579 14.1993 14.7426C14.1993 15.0271 14.461 15.2852 14.7455 15.2812H14.9306C14.8203 15.5187 14.6452 15.7291 14.3359 15.9992C11.0674 15.9891 9.50914 16.042 8.77087 15.9655C8.39045 15.926 8.24043 15.8702 8.05287 15.7579C7.89671 15.6644 7.68107 15.4857 7.38532 15.2473V9.78903C9.07006 7.53679 9.49493 5.96146 9.58447 3.63479C9.75277 2.70739 10.5566 3.0918 10.7963 3.6121ZM3.07701 9.17714H6.30832C6.29617 11.3168 6.30832 13.4833 6.30832 15.6398H3.07701V9.17714Z" fill="#1ABFA1"/>
</svg>
