<svg width="20" height="20" viewBox="0 0 20 20" fill="none" xmlns="http://www.w3.org/2000/svg">
<path d="M8.50747 16.4159C8.43284 14.4472 8.19955 13.2939 7.05454 11.5914C6.85969 11.7807 6.59648 11.9 6.30848 11.9H3.07717C2.48976 11.9 2 11.4102 2 10.8228V4.36017C2 3.77276 2.48973 3.283 3.07717 3.283H6.30848C6.61064 3.283 6.8855 3.41373 7.08259 3.61959C7.22296 3.50827 7.35381 3.40609 7.50333 3.31668C7.82102 3.1266 8.19143 3.01227 8.66465 2.96332C9.61096 2.86527 11.1016 2.93853 14.5663 2.924C14.69 2.92413 14.8131 2.96858 14.9085 3.04747C15.594 3.6067 15.9307 4.18186 16.0866 4.79219C16.1465 4.82475 16.2001 4.86882 16.2436 4.92117C16.7634 5.57083 16.973 6.32076 16.8831 6.99684C16.9119 7.02025 16.9384 7.04655 16.9616 7.07535C17.5645 7.82881 17.7556 8.72024 17.5394 9.47085C17.8929 9.92964 18.0457 10.4684 17.9882 10.9688C17.9177 11.5824 17.5251 12.1352 16.9336 12.3936C16.8666 12.4228 16.7936 12.4382 16.7205 12.4385H12.2998C12.5364 14.205 12.3558 15.8243 11.7332 16.9206C11.3805 17.5419 10.842 17.906 10.3027 17.9865C9.33396 18.1055 8.60032 17.4249 8.50751 16.4157L8.50747 16.4159ZM10.7963 16.3879C11.2868 15.5241 11.5162 13.8251 11.1665 12.0009C11.1074 11.6913 11.3787 11.3624 11.6938 11.3614H16.5633C16.7645 11.249 16.8901 11.0767 16.9166 10.8453C16.9415 10.6284 16.8479 10.3669 16.6305 10.1047H14.7455C14.461 10.1047 14.1993 9.85074 14.1993 9.56611C14.1993 9.2816 14.461 9.02352 14.7455 9.02752H16.5294C16.5704 8.72274 16.4951 8.33943 16.2489 7.95035H14.7455C14.461 7.95035 14.1993 7.69641 14.1993 7.41177C14.1993 7.12727 14.461 6.86918 14.7455 6.87319H15.8114C15.8523 6.5684 15.7771 6.18509 15.5309 5.79602H14.7455C14.461 5.79602 14.1993 5.54207 14.1993 5.25743C14.1993 4.97293 14.461 4.71484 14.7455 4.71885H14.9306C14.8203 4.4813 14.6452 4.27092 14.3359 4.00084C11.0674 4.01086 9.50914 3.95802 8.77087 4.03453C8.39045 4.07397 8.24043 4.12982 8.05287 4.24215C7.89671 4.33556 7.68107 4.51425 7.38532 4.75268V10.211C9.07006 12.4632 9.49493 14.0385 9.58447 16.3652C9.75277 17.2926 10.5566 16.9079 10.7962 16.3876L10.7963 16.3879ZM3.07701 10.8229H6.30832C6.29618 8.6832 6.30832 6.51668 6.30832 4.36023H3.07701V10.8229Z" fill="#E84B47"/>
</svg>
