<svg width="8" height="9" viewBox="0 0 8 9" fill="none" xmlns="http://www.w3.org/2000/svg">
<path d="M4.50611 6.34333L6.8418 3.99454C6.92099 3.91468 6.97112 3.81792 6.98635 3.71549C7.00158 3.61306 6.9813 3.50916 6.92785 3.41587C6.8744 3.32257 6.78998 3.2437 6.68439 3.18841C6.5788 3.13313 6.45637 3.10369 6.33132 3.10352H1.65995C1.5349 3.10369 1.41247 3.13313 1.30689 3.18841C1.2013 3.2437 1.11688 3.32257 1.06343 3.41587C1.00998 3.50916 0.989691 3.61306 1.00492 3.71549C1.02015 3.81792 1.07028 3.91468 1.14948 3.99454L3.48516 6.34333C3.54718 6.40553 3.62511 6.45563 3.71337 6.49002C3.80164 6.52441 3.89803 6.54225 3.99564 6.54225C4.09324 6.54225 4.18964 6.52441 4.2779 6.49002C4.36616 6.45563 4.44409 6.40553 4.50611 6.34333Z" fill="#0869FB"/>
</svg>
