<svg width="13" height="7" viewBox="0 0 13 7" fill="none" xmlns="http://www.w3.org/2000/svg">
<path d="M7.34499 6.22832L11.7644 1.78409C11.9143 1.63298 12.0091 1.44989 12.038 1.25608C12.0668 1.06227 12.0284 0.865688 11.9273 0.68916C11.8261 0.512632 11.6664 0.363398 11.4666 0.258784C11.2668 0.15417 11.0352 0.0984678 10.7986 0.0981445H1.95965C1.72304 0.0984678 1.4914 0.15417 1.29161 0.258784C1.09182 0.363398 0.932085 0.512632 0.830951 0.68916C0.729817 0.865688 0.691431 1.06227 0.720251 1.25608C0.749071 1.44989 0.843914 1.63298 0.993769 1.78409L5.41322 6.22832C5.53056 6.34602 5.67802 6.44081 5.84502 6.50589C6.01203 6.57097 6.19442 6.60472 6.3791 6.60472C6.56379 6.60472 6.74618 6.57097 6.91318 6.50589C7.08018 6.44081 7.22765 6.34602 7.34499 6.22832Z" fill="black"/>
</svg>
