<svg width="16" height="16" viewBox="0 0 16 16" fill="none" xmlns="http://www.w3.org/2000/svg">
<g clip-path="url(#clip0_118_26225)">
<path d="M8 1C4.13895 1 1 4.13895 1 8C1 11.8611 4.13895 15 8 15C11.8611 15 15 11.8611 15 8C15 4.13895 11.8611 1 8 1ZM1.88421 8C1.88421 6.39371 2.50316 4.93474 3.52 3.84421C3.5789 3.87371 3.63791 3.90311 3.71161 3.96212C3.75581 4.00632 3.77051 4.28633 3.74111 4.59575V4.62515C3.74111 4.62515 3.99163 5.2441 3.75581 5.74512C3.4906 6.27565 3.5495 7.13041 3.68211 7.32202C3.80002 7.48413 4.37474 8.23568 4.46316 8.32407C4.52206 8.38297 4.72837 8.92831 4.74319 9.00202C4.75789 9.07572 5.14111 9.53255 5.53892 9.53255C5.77474 9.51785 6.03995 9.65045 6.21687 9.73886C6.30528 9.78306 6.36428 9.81256 6.40848 9.82726C6.42318 9.82726 6.45268 9.87146 6.46738 9.91567C6.52629 10.0189 6.61479 10.1662 6.82109 10.2841C6.88 10.3136 6.939 10.343 6.9979 10.3873C7.20422 10.5052 7.49893 10.6673 7.51375 10.7115C7.51375 10.7262 7.46954 10.7704 7.44004 10.8147C7.30743 10.9621 7.10112 11.2126 7.16002 11.5368C7.24842 11.9937 7.88215 12.5389 8.08846 12.6716C8.22107 12.76 8.16217 13.6885 8.08846 13.8653C8.05896 13.9242 8.04426 14.0274 8.05896 14.1305H7.98526C4.62526 14.1158 1.8842 11.3747 1.8842 7.99995L1.88421 8ZM9.22316 13.9979C9.29686 13.9095 9.38527 13.8211 9.39997 13.7916C9.41467 13.7769 9.47367 13.7474 9.50318 13.7179C9.60638 13.659 9.70949 13.6 9.75369 13.5263C9.82739 13.4231 10.0337 13.2021 10.1221 13.1578C10.24 13.0989 10.9622 12.4505 11.0064 12.3473C11.1243 12.0821 11.2716 11.7873 11.3601 11.7137C11.5222 11.5811 11.3748 11.3452 11.3159 11.2568L11.3011 11.242C11.2422 11.1388 10.8294 11.0946 10.7706 11.1094C10.6968 11.1094 10.3432 10.9178 10.3284 10.8589C10.3284 10.741 9.9895 10.4168 9.90111 10.4168C9.8569 10.4168 9.65059 10.3726 9.54739 10.24C9.41479 10.0779 8.92845 9.95996 8.79584 9.95996C8.66323 9.95996 8.47163 9.93045 8.33903 9.87155C8.22112 9.81265 8.01482 9.90105 7.8085 9.98946C7.7643 10.0042 7.72009 10.019 7.70529 10.0337C7.63159 10.0484 7.23366 9.97476 7.14527 9.93045C7.11576 9.90095 7.10106 9.75364 7.10106 9.66524C7.08636 9.56203 7.08636 9.50313 7.07156 9.45893C7.04206 9.40003 6.95365 9.38523 6.76203 9.32632C6.71783 9.31162 6.65883 9.29682 6.62943 9.28212C6.64413 9.25262 6.65893 9.20842 6.67363 9.16421C6.73253 9.0168 6.77684 8.9137 6.74733 8.85469C6.73264 8.82518 6.71783 8.81048 6.68843 8.81048C6.60003 8.79578 6.46742 8.88419 6.33472 8.97259C6.27582 9.0168 6.18731 9.0758 6.15791 9.0905C6.08421 9.0905 5.9221 9.0316 5.73059 8.91369C5.62739 8.85479 5.74529 8.48638 5.8043 8.32427C5.8338 8.23587 5.8632 8.17686 5.8632 8.13266C5.8632 8.08846 6.06951 8.02945 6.36423 8.02945C6.43793 8.02945 6.55584 8.01475 6.65894 7.99995C6.74734 7.98525 6.85055 7.97045 6.90945 7.97045C6.95366 7.97045 7.02736 8.08836 7.07156 8.14726C7.14527 8.26517 7.20417 8.33887 7.29257 8.32407C7.41048 8.29457 7.39578 8.14726 7.39578 8.04404V7.95564C7.41048 7.89673 7.55789 7.63143 7.67581 7.5725C7.82322 7.4841 8.01473 7.20408 7.97052 7.07148C7.97052 7.01258 8.22103 6.83567 8.30944 6.77677C8.35364 6.74727 8.38314 6.73257 8.39784 6.71787C8.42735 6.70317 8.45675 6.68836 8.48625 6.65896C8.57466 6.61476 8.69256 6.55576 8.69256 6.39375C8.69256 6.30535 8.97259 6.26114 9.13469 6.23164C9.17889 6.23164 9.2084 6.21694 9.2379 6.21694C9.34111 6.20224 9.40001 6.17274 9.42951 6.12854C9.45901 6.06963 9.42951 5.99593 9.40001 5.92223C9.38531 5.90753 9.38531 5.87802 9.37051 5.84852C9.3116 5.71591 9.341 5.61271 9.47371 5.52431C9.53262 5.48011 9.63582 5.46541 9.75374 5.46541C9.87165 5.45071 9.98955 5.43591 10.1075 5.3917C10.1959 5.3622 10.2401 5.318 10.2549 5.2591C10.2696 5.18539 10.2254 5.12649 10.1812 5.06748C10.1665 5.03798 10.1517 5.02328 10.137 4.99378C10.078 4.87587 9.96014 4.78747 9.90114 4.72857C9.85694 4.69907 9.82743 4.52226 9.79793 4.41904C9.78323 4.34534 9.76843 4.28643 9.75373 4.25693C9.73903 4.21273 9.70953 4.19803 9.66532 4.18323C9.57692 4.15372 9.42951 4.19793 9.34111 4.24213C9.34111 4.22743 9.32641 4.18323 9.32641 4.16842C9.31171 4.10952 9.31171 4.05052 9.26751 4.00631C9.25281 3.99161 9.19381 3.93261 9.1349 3.88841C9.0465 3.8147 8.94329 3.71159 8.86969 3.63789C8.82549 3.59369 8.78129 3.59369 8.75178 3.59369C8.64858 3.60839 8.56017 3.7263 8.48657 3.8589C8.47187 3.8736 8.47187 3.8884 8.45707 3.9031C8.32446 4.09471 8.30966 4.24202 8.39817 4.31573C8.39817 4.31573 8.41287 4.35994 8.38347 4.41894C8.33927 4.52215 8.28026 4.59575 8.23606 4.59575C8.11815 4.58105 8.08865 4.74316 8.05925 4.90528C8.04455 4.96418 8.02975 5.05269 8.01505 5.08209C7.98554 5.05259 7.95614 4.96418 7.95614 4.69896V4.66946C7.95614 4.63995 7.94144 4.61055 7.92664 4.58105C7.89714 4.55155 7.83823 4.55155 7.79403 4.55155C7.73513 4.55155 7.70563 4.55155 7.69082 4.53685C7.63192 4.43364 7.30769 4.30103 7.17498 4.25682V3.87369C7.21918 3.81479 7.72022 3.47577 7.83811 3.43156C8.00022 3.37266 8.39814 3.10735 8.48656 3.04843C8.56027 3.00422 8.57497 2.94522 8.56027 2.90102C8.54557 2.76841 8.30975 2.68001 8.20656 2.6505C8.13285 2.47369 8.01495 2.47369 7.86763 2.47369C7.79393 2.47369 7.72022 2.47369 7.61712 2.45899C7.23399 2.40009 6.92449 2.38529 6.65928 2.41479C6.48247 2.44429 6.26136 2.40009 6.08454 2.35589C5.99614 2.34119 5.92243 2.32639 5.84873 2.31168H5.73082C6.43816 2.01697 7.21922 1.85487 8.02974 1.85487C8.85498 1.85487 9.63603 2.01698 10.3582 2.3265C10.3729 2.40021 10.4024 2.48861 10.4466 2.57701C10.5203 2.75382 10.6676 3.06333 10.6529 3.28436C10.6529 3.50537 10.6824 3.75599 10.6529 3.82959C10.6234 3.9033 11.1097 4.43383 11.2129 4.44854C11.3161 4.46325 11.3897 4.38964 11.4487 4.28643C11.5224 4.18322 11.6108 4.06542 11.8024 3.91801C11.9203 3.8296 12.2297 3.7854 12.4509 3.7706C12.6719 3.99161 12.8635 4.22741 13.0403 4.49273C12.9961 4.53693 12.9371 4.56644 12.9077 4.59594C12.8193 4.68434 12.5688 4.93486 12.5982 5.11178C12.6277 5.30339 12.834 5.5391 13.0698 5.65702C13.3203 5.78962 13.3498 6.04015 13.3498 6.08433C13.3498 6.12854 13.7035 6.34954 13.7035 6.34954C13.7035 6.34954 13.5561 6.64425 13.4825 6.64425C13.4088 6.64425 13.3499 6.93896 13.3499 7.05689C13.3499 7.17479 13.4973 7.3811 13.6446 7.49902C13.792 7.61692 14.0425 7.29271 14.0425 7.29271L14.0867 7.27801C14.1014 7.46962 14.1163 7.66114 14.131 7.85274C13.9246 7.88225 13.6593 7.98535 13.5857 8.04435C13.4825 8.13276 13.2615 8.84009 13.1584 8.9138C13.0552 8.98751 12.8489 9.96017 12.8342 10.0633C12.8195 10.137 13.1289 10.7412 13.3352 10.9917C12.4799 12.5094 10.9916 13.6294 9.22311 13.9978L9.22316 13.9979Z" fill="#666666"/>
</g>
<defs>
<clipPath id="clip0_118_26225">
<rect width="14" height="14" fill="white" transform="translate(1 1)"/>
</clipPath>
</defs>
</svg>
