<svg width="10" height="10" viewBox="0 0 10 10" fill="none" xmlns="http://www.w3.org/2000/svg">
<path d="M9.99894 5.01554C10.0443 7.71031 7.73088 10.0107 4.98272 10.0004C2.31146 9.99023 -0.0601825 7.74229 0.00116444 4.88274C0.0567323 2.25992 2.25544 0.0359743 4.93693 0.000440819C7.74244 -0.0368693 10.0585 2.29945 9.99894 5.01554ZM5.69087 5.86213C5.69087 5.48148 5.69176 5.10127 5.69043 4.72062C5.68954 4.51452 5.59796 4.38838 5.4117 4.33019C5.38058 4.32042 5.34635 4.31509 5.3139 4.31509C4.87025 4.3142 4.42615 4.31242 3.98249 4.31598C3.78956 4.31731 3.62064 4.4701 3.61441 4.63533C3.60819 4.80234 3.77978 4.96491 3.97538 4.97424C4.04162 4.97734 4.1083 4.97512 4.17498 4.97557C4.31101 4.97646 4.31857 4.98356 4.31857 5.12125C4.31901 5.74176 4.31901 6.3627 4.31857 6.98321C4.31857 7.14444 4.3119 7.1511 4.14875 7.15066C4.03406 7.15022 3.92115 7.14844 3.81223 7.1973C3.66331 7.26392 3.58596 7.44114 3.64686 7.59083C3.71577 7.75961 3.85624 7.81114 4.02117 7.81158C4.66842 7.81336 5.31568 7.81203 5.96249 7.81203C5.99583 7.81203 6.02917 7.81336 6.06207 7.8098C6.23366 7.79071 6.37814 7.65523 6.3937 7.50066C6.40659 7.37363 6.29412 7.23194 6.14031 7.17331C6.05362 7.14044 5.96471 7.15288 5.87714 7.15155C5.69087 7.14933 5.69087 7.1511 5.69087 6.96988C5.69087 6.60122 5.69087 6.23168 5.69087 5.86213ZM4.32079 2.87021C4.31901 3.21711 4.65642 3.57289 5.00583 3.54934C5.40725 3.52225 5.64953 3.28773 5.68376 2.87821C5.71221 2.53442 5.35836 2.17331 5.00894 2.19419C4.60308 2.21773 4.37236 2.45713 4.32079 2.87021Z" fill="#999999"/>
</svg>
