<svg width="20" height="20" viewBox="0 0 20 20" fill="none" xmlns="http://www.w3.org/2000/svg">
<path d="M11.714 16.7143C11.6449 16.7143 11.5751 16.7017 11.5077 16.6761C11.2877 16.5909 11.1425 16.3789 11.1425 16.1429V12.3751C10.0283 12.3145 8.92662 12.4231 7.85505 12.6963C5.54191 13.2866 3.91971 14.4991 2.96657 15.4122C2.78481 15.5864 2.50995 15.6208 2.29055 15.4974C2.07117 15.3734 1.95854 15.1202 2.01402 14.8746C2.24948 13.8243 3.29464 10.2398 6.8607 8.21697C8.4241 7.33012 9.97551 7.03356 11.1428 6.96098L11.1427 3.5716C11.1427 3.33563 11.2878 3.12363 11.5079 3.03844C11.7291 2.95323 11.9777 3.01267 12.137 3.18704L17.8512 9.47273C18.0496 9.69097 18.0496 10.0236 17.8512 10.2419L12.137 16.5276C12.0266 16.6487 11.8724 16.7144 11.7141 16.7144L11.714 16.7143ZM10.5495 11.2159C10.9552 11.2159 11.3626 11.2359 11.7706 11.2765C12.0626 11.3056 12.2854 11.5514 12.2854 11.8451V14.6645L16.6557 9.85635L12.2854 5.0482V7.51157C12.2854 7.82586 12.0317 8.08072 11.7179 8.083C10.6528 8.0904 9.04373 8.29155 7.42473 9.20992C5.45049 10.3293 4.34758 11.9956 3.74702 13.3151C4.74241 12.6374 6.01565 11.9848 7.57264 11.5881C8.54574 11.3395 9.54293 11.215 10.5492 11.215L10.5495 11.2159Z" fill="#2BB3F4"/>
</svg>
