<svg width="73" height="74" viewBox="0 0 73 74" fill="none" xmlns="http://www.w3.org/2000/svg">
<path d="M67.4319 0.445312H5.90462C3.0729 0.445312 0.777344 2.74087 0.777344 5.57259V51.718C0.777344 54.5498 3.0729 56.8453 5.90462 56.8453H67.4319C70.2636 56.8453 72.5592 54.5498 72.5592 51.718V5.57259C72.5592 2.74087 70.2636 0.445312 67.4319 0.445312Z" fill="#4E6AFF"/>
<path d="M0.777344 51.7181V38.9L15.2106 25.569C15.8485 24.9715 16.6709 24.6091 17.5423 24.5415C18.4138 24.4739 19.2822 24.7052 20.0046 25.1973L31.3103 32.76L50.294 13.7379C50.6519 13.3736 51.0788 13.0842 51.5498 12.8867C52.0208 12.6891 52.5263 12.5874 53.0371 12.5874C53.5478 12.5874 54.0534 12.6891 54.5244 12.8867C54.9953 13.0842 55.4222 13.3736 55.7802 13.7379L72.5592 31.209V51.7181C72.5592 53.078 72.019 54.3821 71.0574 55.3437C70.0959 56.3052 68.7917 56.8454 67.4319 56.8454H5.90462C4.54478 56.8454 3.24064 56.3052 2.27909 55.3437C1.31754 54.3821 0.777344 53.078 0.777344 51.7181Z" fill="#323FD4"/>
<path d="M30.2607 20.9544C33.8003 20.9544 36.6697 18.085 36.6697 14.5453C36.6697 11.0057 33.8003 8.13623 30.2607 8.13623C26.721 8.13623 23.8516 11.0057 23.8516 14.5453C23.8516 18.085 26.721 20.9544 30.2607 20.9544Z" fill="white"/>
<path d="M45.6402 73.5089C54.8433 73.5089 62.3038 66.0484 62.3038 56.8453C62.3038 47.6422 54.8433 40.1816 45.6402 40.1816C36.4371 40.1816 28.9766 47.6422 28.9766 56.8453C28.9766 66.0484 36.4371 73.5089 45.6402 73.5089Z" fill="white"/>
<path d="M45.7539 63.5C52.1052 63.5 57.2539 60.5899 57.2539 57C57.2539 53.4102 52.1052 50.5 45.7539 50.5C39.4026 50.5 34.2539 53.4102 34.2539 57C34.2539 60.5899 39.4026 63.5 45.7539 63.5Z" fill="#4E6AFF"/>
<path d="M45.6429 61.9723C48.4746 61.9723 50.7702 59.6768 50.7702 56.845C50.7702 54.0133 48.4746 51.7178 45.6429 51.7178C42.8112 51.7178 40.5156 54.0133 40.5156 56.845C40.5156 59.6768 42.8112 61.9723 45.6429 61.9723Z" fill="#323FD4"/>
<path d="M48.2043 56.845C49.6201 56.845 50.7679 55.6973 50.7679 54.2814C50.7679 52.8656 49.6201 51.7178 48.2043 51.7178C46.7884 51.7178 45.6406 52.8656 45.6406 54.2814C45.6406 55.6973 46.7884 56.845 48.2043 56.845Z" fill="white"/>
</svg>
