<svg width="56" height="57" viewBox="0 0 56 57" fill="none" xmlns="http://www.w3.org/2000/svg">
<rect x="0.306641" y="0.6521" width="55.4328" height="55.4328" rx="12.3184" fill="#EAF2FF"/>
<path d="M28.0226 13.7415C24.143 13.7415 20.4223 15.2826 17.679 18.0259C14.9357 20.7692 13.3945 24.4899 13.3945 28.3696C13.3945 32.2492 14.9357 35.9699 17.679 38.7132C20.4223 41.4565 24.143 42.9977 28.0226 42.9977L28.0226 28.3696V13.7415Z" fill="#0869FB"/>
<path d="M28.0233 42.9958C31.9029 42.9958 35.6236 41.4547 38.3669 38.7114C41.1102 35.9681 42.6514 32.2474 42.6514 28.3678C42.6514 24.4881 41.1102 20.7674 38.3669 18.0241C35.6236 15.2808 31.9029 13.7396 28.0233 13.7396L28.0233 28.3677L28.0233 42.9958Z" fill="#92BDFF"/>
</svg>
